<?xml version="1.0" encoding="iso-8859-1"?>
<!-- Generator: Adobe Illustrator 19.0.0, SVG Export Plug-In . SVG Version: 6.00 Build 0)  -->
<svg version="1.1" id="Capa_1" xmlns="http://www.w3.org/2000/svg" xmlns:xlink="http://www.w3.org/1999/xlink" x="0px" y="0px"
	 viewBox="0 0 493.558 493.558" style="enable-background:new 0 0 493.558 493.558;" xml:space="preserve">
<g>
	<path d="M437.899,37.802c3.1-0.2,6.3-0.4,9.4-0.7c13.5-1.2,24.7-5.8,23.7-14.8c-0.9-8.3-10.5-14.4-24.3-15.3
		c-24.8-1.7-49.9-3.6-74.8-3.4c-40.1,0.4-80.2,2.4-120.3,3.7c-71.9-11.5-145.4-5-218.1-7.3c-3.2-0.1-8.3,3.4-9.9,5.8
		c-3.2,4.9,1,9,7.1,12.1c12.2,6.2,26,10.3,40.5,12.8c-0.5,3.1-0.9,6.6-1.2,10.4c-4.2,53.9-1.4,118.5,4.9,183.8
		c8,83.8,15.7,167.7,24.3,251.7c0.9,9,8.5,16.2,17.8,16.3h0.4c73.8,0.9,147.7,1,221.8-0.5l37,0.7c9.1,0.2,17.1-6.5,18.3-15.8
		l0.1-0.7l2.9-21.8c15.6-123.7,30.1-247.5,39.9-371.2C438.799,65.902,439.099,49.502,437.899,37.802z M88.699,46.402
		c-0.4-4.1-1.8-9.1-3.4-13.7c5.1,0.6,10.3,1,15.4,1.2c25.4,1.2,50.8,2.7,76.2,3.7c-6.4,19-8.6,40.7-8.4,62.5c0,2,0,4.1,0,6.1
		c-24.5-0.1-49,0.7-73.5,0C92.899,86.302,90.699,66.402,88.699,46.402z M97.799,130.902c12.4,5.5,26.1,8.2,40,9.1
		c10.3,0.7,20.7,1.4,31,2.1c0.1,23.4,0.4,46.8,1.2,70.2c-20.9,0-41.9,0.7-62.8,0.1C103.999,185.202,100.899,158.002,97.799,130.902z
		 M110.199,237.702c11,5,23.1,7.5,35.3,8.4c8.8,0.6,17.5,1.3,26.3,1.9c0.8,12.1,1.8,24.1,3.1,36.2c0.1,7.6,0,15.3,0.2,22.9
		c0.2,8.8,0.5,17.6,0.7,26.4c-18.2,0-36.4,0.5-54.6,0.2C117.699,301.702,113.899,269.702,110.199,237.702z M134.299,456.502
		c-3-31.4-6.3-62.9-9.7-94.3c8.1,2.8,16.6,4.4,25.2,5.1c9.3,0.7,18.5,1.4,27.8,2.2c1.6,27.5,3.9,54.9,7.8,82.1
		c0.3,2.3,0.8,4.5,1.3,6.6C169.199,457.502,151.699,457.002,134.299,456.502z M259.299,461.702c-15-0.9-30-1.7-45.1-2.4
		c0.7-3.1,1.2-6.5,1.2-10.2c0.3-25.3,0.7-50.8-0.9-76c0-0.4-0.1-0.9-0.1-1.3c17.8,0.8,35.7,0.9,53.6-0.5c2.5,0.2,4.9,0.4,7.4,0.6
		c-1.4,25.9-2.1,51.8-1.3,77.7c0.1,4.3,0.6,8.3,1.4,11.9C270.099,461.602,264.699,461.702,259.299,461.702z M282.799,282.202
		c-0.8,7.6-1.7,15.2-2.4,22.8c-1,11.3-2,22.6-2.9,34c-9.8,0.6-19.6,1.2-29.5,1.7c-12.1-3-24.3-4.7-36.5-5.7
		c-2.4-27.8-5.2-55.5-7.7-83.3c0-0.5,0.1-0.9,0.1-1.4c22.5,1.2,45,1.7,67.6,0c4,0.3,8,0.6,12,0.9
		C283.199,261.302,282.899,271.702,282.799,282.202z M285.599,217.502c-11.7,0.6-23.5,1.3-35.2,1.9c-14.7-3.4-29.4-5.1-44.2-6.1
		c0.6-23-0.1-45.9-1.3-69c22.9,1.1,45.9,1.4,68.9-0.3c5.6,0.4,11.2,0.8,16.9,1.1c0.6,0,1.2,0,1.8,0.1
		C289.799,169.202,287.299,193.302,285.599,217.502z M296.099,111.102c-15.1,0.7-30.2,1.6-45.3,2.2c-16-3.4-32.1-5.2-48.3-6.1
		c-1.5-22.9-3-45.8-3.7-68.7c27.7,0.8,55.5,1,83.3-0.5c7.5,0.4,15,0.8,22.5,1.1c2.5,0.1,5,0.2,7.5,0.2c-8,17.8-12.5,38.3-14.7,59.3
		C296.999,102.702,296.499,106.902,296.099,111.102z M362.999,460.302c-20.5,0.3-40.9,0.6-61.4,0.9c1.2-3.1,2.1-6.6,2.6-10.4
		c3.2-25.1,6.5-50.4,7.8-75.6c0-0.5,0-1.1,0.1-1.6c20,0.4,40-0.2,59.9-2.6C368.899,400.702,365.899,430.502,362.999,460.302z
		 M381.899,276.202c-2.3,21.3-4.5,42.7-6.7,64c-16.2-1.7-32.5-3.6-48.7-3.4c-4.4,0.1-8.7,0.2-13.1,0.4c0.8-28.1,1.2-56.2,1.9-84.2
		c0.1-0.3,0.1-0.5,0.2-0.8c23.2,0.5,46.4,0,69.5-2.8C383.899,258.302,382.799,267.302,381.899,276.202z M388.599,219.502
		c-0.9-0.2-1.7-0.4-2.6-0.5c-17.3-1.7-34.7-3.6-52-3.4c-4,0.1-8.1,0.2-12.1,0.3c3.3-23.1,5.2-46.3,6.7-69.7c23,0.3,46.1-0.5,69-3.1
		c0.4,0,0.8-0.1,1.2-0.2C395.199,168.402,391.799,194.002,388.599,219.502z M407.199,82.002c-1.5,10.7-3,21.4-4.5,32.2
		c-1.8-0.6-3.6-1-5.7-1.2c-18.6-1.7-37.4-3.6-56.1-3.4c-3.5,0-7,0.2-10.5,0.3c1.2-23.3,2.3-46.7,4.2-69.9
		c27.4,0.6,54.8,0.5,82.1-0.8C412.999,49.802,409.599,64.502,407.199,82.002z"/>
</g>
<g>
</g>
<g>
</g>
<g>
</g>
<g>
</g>
<g>
</g>
<g>
</g>
<g>
</g>
<g>
</g>
<g>
</g>
<g>
</g>
<g>
</g>
<g>
</g>
<g>
</g>
<g>
</g>
<g>
</g>
</svg>
