<?xml version="1.0" encoding="iso-8859-1"?>
<!-- Generator: Adobe Illustrator 19.0.0, SVG Export Plug-In . SVG Version: 6.00 Build 0)  -->
<svg version="1.1" id="Capa_1" xmlns="http://www.w3.org/2000/svg" xmlns:xlink="http://www.w3.org/1999/xlink" x="0px" y="0px"
	 viewBox="0 0 491.293 491.293" style="enable-background:new 0 0 491.293 491.293;" xml:space="preserve">
<g>
	<g>
		<path d="M69.093,341.747l1.3,0.2h0.9l1.8,0.1l3.5,0.2h4.5l14.1-0.1l28.2-0.2h14.1l4.2-0.1c1.5,0,3.1-0.1,4.6-0.3
			c3.1-0.3,6.2-0.7,9.2-1.3c12.2-2.4,23.8-7.7,33.7-15.1c1.8-1.3,3.3-3.7,4.5-6.5c0.6-1.4,1.1-2.8,1.2-3.9c0-1,0-2-0.2-2.7
			c-1.4-5.8-7.1-5.2-14.3-3c-11.6,3.2-22.9,4.3-33.5,3.3c-2.7-0.2-5.3-0.7-7.8-1.1c-3.1-0.5-6.3-0.9-9.4-1.3
			c-6.3-0.8-12.8-1.3-19.2-1.6l-23.3-1.1l-5.8-0.3l-2.9-0.1h-0.4h-0.2h-0.1l0,0c0.3,0-0.8,0,0.7,0l-0.7-0.1l-1.5-0.1
			c-1.8-0.2-4.3-0.3-5.1-0.7c-1.2-0.4-2.2-0.4-3.6-1c-11-3.2-20.3-10.8-25.9-20.2c-2.8-4.7-4.7-9.9-5.7-15.2c-0.1-1.3-0.3-2.7-0.5-4
			l-0.1-4.1v-11.5l-0.1-11.7l-0.1-5.9v-1.5v-0.4v-0.2l0,0l0.1-2.9c0-0.9,0-2.1,0.1-2.8l0.2-1.6l0.1-1.6l0.4-2c0.2-1.4,0.5-2.7,1-4
			c0.4-1.3,0.8-2.7,1.3-3.9c2.7-4.8,6.3-8.9,10.4-12.4c3.2-2.8,6.9-5,10.7-6.6c3.8-1.7,7.8-2.8,12-3.2c2-0.4,4.1-0.2,6.2-0.4
			l9.2,0.1h18.4l18.4-0.3l17.7-0.5c7.8-0.2,16.7,2.1,24.3,6.6c4.4,2.5,8.5,5.1,12.6,6.5s8.1,1.9,11.9-0.8c3.3-2.4,5.1-6.7,4.3-12.3
			c-0.8-5.5-4.4-12.3-11.1-17.9c-6-4.9-12.8-9.1-20.2-12c-3.7-1.4-7.5-2.7-11.5-3.5c-1.9-0.5-4.1-0.8-6.3-1.1l-1.6-0.2l-1.2-0.1
			l-2.4-0.2l-10.2-0.5l-9.6-0.3c-6.4-0.2-12.9-0.2-19.3-0.2l-15.6,0.5l-7.7,0.2c-3.2,0.2-6.5,0.3-9.7,0.8c-12.9,1.9-25.3,7-35.4,15
			c-5.2,3.8-9.6,8.6-13.6,13.5c-3.7,5.2-7.2,10.5-9.6,16.4c-1.4,2.9-2.2,5.9-3.2,8.9c-0.8,3.1-1.5,6-2,9.4c-0.4,3.4-0.9,7.1-0.8,9.3
			l-0.1,4.5l0.1,3.9c-0.7,4.6-1.4,9.3-1.9,13.9l-0.8,7l-0.4,3.5c-0.1,1.1-0.3,2.3-0.3,3.9c-0.6,11.8,1.7,24,6.9,35
			c10.4,22.1,31.8,39,57,43.1L69.093,341.747z"/>
		<path d="M491.293,221.947c-0.2-2.9-0.2-5.9-0.7-8.8c-1.7-11.7-6.5-23.2-13.7-33s-17-17.8-28.1-23.2c-5.5-2.8-11.5-4.7-17.5-6.1
			l-5.1-0.8l-2.6-0.4c-0.9-0.1-1.7-0.2-2.2-0.2l-3.5-0.2l-1.8-0.1h-2.8c-18.8,0.1-37.6,0.2-56.3,0.3h-3.6l-4.6,0.2
			c-3.1,0.2-6.2,0.5-9.2,1.1c-6.1,1.1-12.1,2.8-17.8,5.2c-11.4,4.8-21.7,12.2-30,21.4c-1.4,1.7-2.6,4.4-3.3,7.4
			c-0.4,1.5-0.5,2.9-0.3,3.8c0.2,1,0.4,1.9,0.7,2.6c1.2,2.7,3.2,3.7,5.7,3.5c1.3-0.1,2.6-0.4,4.1-1c1.6-0.6,3.2-1.5,4.8-2.3
			c10.7-5.4,21.6-8.7,32.2-9.9c5.3-0.6,10.5-0.6,15.6-0.1c3,0.3,6,0.6,9,0.9c3.2,0.3,6.4,0.5,9.7,0.6l23.3,1.1l11.7,0.6l5.8,0.3
			l2.9,0.1h0.7h0.4h0.1l0,0c0.2,0-1.5,0-0.8,0h0.2l1.5,0.1l2.9,0.3l1.5,0.1c0.5,0,0.6,0.2,0.9,0.2c1.2,0.4,2.2,0.5,3.5,0.9
			c1.3,0.5,2.7,0.8,4,1.4c1.3,0.6,2.6,1.1,3.8,1.7c5,2.5,9.5,6,13.1,10c7.4,8.2,11.5,18.8,11.6,29.6l0.3,23l0.2,5.9v1.5v0.7v0.4
			c0,0.9,0-1.1,0-0.9l0,0v0.1v0.2v2.9v2.9l-0.2,1.6l-0.1,1.6c0,0.6-0.2,1.3-0.3,2c-1.7,5.2-4.4,10-7.7,14.2
			c-2.6,3.4-5.8,6.2-9.2,8.6c-3.4,2.5-7.2,4.3-11.1,5.6c-3.9,1.3-8,2.1-12.1,2.2c-1.6,0.2-5.3,0.1-8.2,0.1h-9.2
			c-12.3,0.1-24.5,0.4-36.7,0.9l-4.6,0.2l-2.3,0.1l-1.1,0.1h-0.6h-0.3h-0.1l0,0c0.2,0-0.5,0,0.5,0h-0.1l-2.3,0.1h-1.1h-0.6
			c-0.8,0-1.8,0-2.9-0.1c-4.3-0.3-8.6-1.1-12.8-2.6c-4.8-1.6-9.3-3.3-13.6-3.9c-4.2-0.6-8.4-0.2-11.5,3.1c-2.8,3-3.7,7.6-1.8,12.9
			c1.9,5.3,6.7,11.2,14.4,15.4c6.9,3.7,14.4,6.4,22.2,7.8c1.8,0.4,4.4,0.6,6.2,0.8l2.4,0.2l2.8,0.2l9.6,0.5
			c12.9,0.7,25.7,1.1,38.6,1l7.7-0.1l4-0.1l4.9-0.3c3.3-0.1,6.5-0.9,9.7-1.4c3.2-0.8,6.4-1.6,9.4-2.7c12.3-4.4,23.4-11.9,31.7-21.7
			c8.5-9.7,14.3-21.5,16.9-34c0.8-2.9,1-6.7,1.4-10c0.1-1.6,0.1-2.7,0.1-4v-1.9v-1.6v-1l-0.5-15.5c0.7-4.6,1.4-9.3,1.9-13.9
			C491.093,227.847,491.293,224.847,491.293,221.947z"/>
		<path d="M148.593,78.047c-0.9-1.2-1.8-2.5-2.8-3.6c-6.3-7.2-13.3-13.5-23.2-16.2c-2.8-0.8-7.4,1.4-13,8.6
			c-5.1,6.5-7.4,12.5-5.9,15c2.7,4.4,5.4,9,9.4,12c6.4,4.7,13.8,8.1,20.8,12.1c3.8,17.8,19.3,21.9,28.9,32.8
			c0.4,0.5,3.4-1.6,5.2-3.3c3.5-3.4,5.5-7.1,6.5-10.3c3.4-10.5,2.4-17.1-0.7-21.2C166.493,94.047,159.993,83.047,148.593,78.047z"/>
		<path d="M315.093,121.547c9.6,5.5,16.2,5.9,20.8,3.8c11.1-5.3,23.1-9.3,30.4-19.4c1.4-0.6,2.8-1.2,4.1-2
			c8.4-4.6,16-10.2,20.7-19.3c1.3-2.6,0.2-7.5-5.7-14.5c-5.3-6.3-10.6-9.9-13.4-8.9c-4.9,1.7-10,3.4-13.6,6.7
			c-5.9,5.3-10.8,11.8-16.2,17.8c-18.3,0-25.4,14.3-38.1,21.5c-0.6,0.3,0.8,3.7,2.1,5.8
			C308.893,117.147,312.193,119.847,315.093,121.547z"/>
		<path d="M231.893,116.347c4.9,0.7,9-0.2,12.1-1.5c10.3-4.3,14.8-9.4,16-14.7c2.9-12.7,7.3-25.3,4-38.1c0.4-1.6,0.8-3.1,1.1-4.7
			c1.7-10,2.2-20-1.9-29.9c-1.2-2.8-5.8-5.2-14.8-5c-8.3,0.2-14.4,2.2-15.3,5.1c-1.7,5.2-3.6,10.5-3.4,15.7
			c0.4,8.4,2.4,16.8,3.7,25.2c-11.5,15.1-4.9,30.5-7.3,45.7C225.893,114.947,229.393,116.047,231.893,116.347z"/>
		<path d="M379.293,397.547c-6.4-4.7-13.8-8.1-20.8-12.1c-3.8-17.8-19.3-21.9-28.9-32.8c-0.4-0.5-3.4,1.6-5.2,3.3
			c-3.5,3.4-5.5,7.1-6.5,10.3c-3.4,10.5-2.4,17.1,0.7,21.2c7.5,9.7,14,20.7,25.4,25.7c0.9,1.2,1.8,2.5,2.8,3.6
			c6.3,7.2,13.3,13.5,23.2,16.2c2.8,0.8,7.4-1.4,13-8.6c5.1-6.5,7.4-12.5,5.9-15C385.993,405.047,383.293,400.447,379.293,397.547z"
			/>
		<path d="M120.293,430.047c4.9-1.7,10-3.4,13.6-6.7c5.9-5.3,10.8-11.8,16.2-17.8c18.3,0,25.4-14.3,38.1-21.5
			c0.6-0.3-0.8-3.7-2.1-5.8c-2.6-4.2-5.8-6.9-8.7-8.6c-9.6-5.5-16.2-5.9-20.8-3.8c-11.1,5.3-23.1,9.3-30.4,19.4
			c-1.4,0.6-2.8,1.2-4.1,2c-8.4,4.6-16,10.2-20.7,19.3c-1.3,2.6-0.2,7.5,5.7,14.5C112.293,427.447,117.593,430.947,120.293,430.047z
			"/>
		<path d="M260.593,374.947c-4.9-0.7-9,0.2-12.1,1.5c-10.3,4.3-14.8,9.4-16,14.7c-2.9,12.7-7.3,25.3-4,38.1
			c-0.4,1.6-0.8,3.1-1.1,4.7c-1.7,10-2.2,20,1.9,29.9c1.2,2.8,5.8,5.2,14.8,5c8.3-0.2,14.4-2.2,15.3-5.1c1.7-5.2,3.6-10.5,3.4-15.7
			c-0.4-8.4-2.4-16.8-3.7-25.2c11.5-15.1,4.9-30.5,7.3-45.7C266.493,376.347,262.993,375.247,260.593,374.947z"/>
	</g>
</g>
<g>
</g>
<g>
</g>
<g>
</g>
<g>
</g>
<g>
</g>
<g>
</g>
<g>
</g>
<g>
</g>
<g>
</g>
<g>
</g>
<g>
</g>
<g>
</g>
<g>
</g>
<g>
</g>
<g>
</g>
</svg>
