<?xml version="1.0" encoding="iso-8859-1"?>
<!-- Generator: Adobe Illustrator 19.0.0, SVG Export Plug-In . SVG Version: 6.00 Build 0)  -->
<svg version="1.1" id="Capa_1" xmlns="http://www.w3.org/2000/svg" xmlns:xlink="http://www.w3.org/1999/xlink" x="0px" y="0px"
	 viewBox="0 0 491.415 491.415" style="enable-background:new 0 0 491.415 491.415;" xml:space="preserve">
<g>
	<g>
		<path d="M491.015,80.959c-0.2-2.9-0.1-5.7-0.6-8.6c-0.7-5.7-2-11.3-3.9-16.8c-7.6-21.8-24.6-39.9-45.9-48.6
			c-2.7-1-5.4-2.1-8.1-2.9c-2.9-0.7-5.4-1.5-8.6-2l-4.8-0.7l-2.4-0.3l-1.7-0.1l-3.3-0.2l-1.6-0.1h-2.6l-26.1,0.1l-52.2,0.1
			c-69.6,0.1-139.1,0.1-208.5-0.5c-12.3-0.1-31.7,3.4-37.8,5.8c-12.1,4.9,3.6,9,27.1,12.1c77.5,10.3,171.5,14.8,267.2,16l21.6,0.3
			l10.1,0.1l5.4,0.3c1.5,0.2,2.4,0.5,3.7,0.6c10.5,2.1,20.7,8.2,27.5,16.7c6.9,8.6,10.5,19.3,10.3,30.2l-0.6,43.2
			c-0.7,57.6-1.3,115.2-2,172.9c-0.2,28.8-0.4,57.7-0.6,86.5l-0.1,21.6c0.1,8.1-0.3,12.6-1.5,16.8c-2.4,9.7-8.4,18.5-16.6,24.3
			c-4.1,2.9-8.6,5.1-13.4,6.5c-2.4,0.7-4.9,1.1-7.4,1.5l-3.8,0.2c-1.4,0.1-3.5,0-5.2,0.1l-43.4,0.2c-28.9,0.3-57.9,0.6-86.8,0.9
			c-28.7-0.4-57.3-0.7-86-1.1l-68.2-0.6l-34.1-0.2h-4.3h-2.1h-0.3h-0.8l-4.3-0.2c-0.8,0-1.2-0.1-1.5-0.2l-1.1-0.2
			c-1.3-0.1-3.3-0.8-5.2-1.2c-1.8-0.7-3.7-1.2-5.4-2.1c-7-3.2-13-8.5-17.3-14.9c-4.2-6.5-6.7-13.9-6.9-21.6l-0.1-67.3
			c-0.1-45.4-0.4-90.8-0.9-136.1c-0.3-22.7-0.6-45.3-0.9-67.9l-0.8-33.9l-0.3-17l-0.2-8.5v-1.1v-0.3v-0.1c0-0.1,0-0.1,0-0.1l0.1-1.8
			c0.1-1.3,0-3.1,0.2-4s0.3-1.9,0.4-2.8c0.1-0.9,0.5-2.2,0.6-3.3c0.2-1.1,0.5-2.2,0.9-3.3c0.4-1.1,0.6-2.2,1-3.2
			c1.5-4.2,3.8-8,6.1-11.5c4.9-6.8,10.9-12.1,16.6-15.8c11.3-7.2,20.8-9.4,19-14.2c-0.8-1.9-3.8-4.1-9-5c-5.2-1.2-12.7-1-21.5,1.8
			c-8.7,2.8-19,8.4-27.5,18.2c-8.6,9.7-15.4,23.2-16.8,39.8l-0.3,4.4l-0.1,5.1l-0.2,8.9l-0.5,17.8c-0.2,11.9-0.4,23.8-0.6,35.7
			c-0.4,23.8-0.8,47.6-1.1,71.4c-0.7,47.6-1.1,95.3-1,142.9l0.1,28.7l0.1,14.4c0,2.5,0,4.6,0.1,7.4c0.2,3,0.1,6,0.7,9
			c1.6,12,6,23.6,12.8,33.6c6.8,9.9,15.9,18.3,26.4,24.2c2.6,1.5,5.4,2.7,8.1,4c2.8,1,5.6,2.2,8.5,3c3,0.7,5.6,1.6,9.1,2l4.9,0.7
			c1.7,0.2,2.5,0.1,3.8,0.2l4.4,0.2h3.6l7.2-0.1l14.3-0.1l57.4-0.5c76.5-0.7,153-1.5,229.5-2.2l12.9,0.5c2.2,0.1,4.1,0.2,6.7,0.2
			c2.6-0.1,5.2,0,7.8-0.3c10.5-0.9,20.8-4.1,30.1-9.3c18.6-10.3,32.9-28.9,37.7-50.2c2.7-13.2,1.8-20.1,2.3-29.1l0.6-25.9
			c0.3-17.3,0.6-34.6,0.9-51.9c1-69.2,1.4-138.6,1.4-208.2v-26.1v-3.3C491.115,83.559,491.115,82.559,491.015,80.959z"/>
		<path d="M186.915,336.759L186.915,336.759c5.6,6.4,15.3,7.2,21.7,1.6l1.8-1.6c22.2-19.1,44-38.8,63.2-61.1c4-3.4,8-6.8,11.8-10.2
			c24.6-22.1,48.4-45,68.8-71.1c5.8-7.4,8.1-16.1,1.2-22.1c-6.3-5.4-15.3-5.1-22.8,1c-13.4,10.9-27.1,21.8-39.2,34.2
			c-19.5,19.9-37.8,40.9-56.5,61.4c-13.5,8.4-25.9,18.2-37.6,28.6c-15.5-15.4-31.3-30.4-45.9-46.5c-1.5-1.7-6.5-1.7-9-0.8
			c-5,1.9-5.9,6.8-5.1,12.1c2.6,17.3,11.5,32.6,22.9,45.7L186.915,336.759z"/>
	</g>
</g>
<g>
</g>
<g>
</g>
<g>
</g>
<g>
</g>
<g>
</g>
<g>
</g>
<g>
</g>
<g>
</g>
<g>
</g>
<g>
</g>
<g>
</g>
<g>
</g>
<g>
</g>
<g>
</g>
<g>
</g>
</svg>
