<?xml version="1.0" encoding="iso-8859-1"?>
<!-- Generator: Adobe Illustrator 19.0.0, SVG Export Plug-In . SVG Version: 6.00 Build 0)  -->
<svg version="1.1" id="Capa_1" xmlns="http://www.w3.org/2000/svg" xmlns:xlink="http://www.w3.org/1999/xlink" x="0px" y="0px"
	 viewBox="0 0 492.8 492.8" style="enable-background:new 0 0 492.8 492.8;" xml:space="preserve">
<g>
	<g>
		<path d="M89.424,383.9c-3.2-3-5.5-6.7-8.3-10.1c-2.6-3.5-5.6-6.7-7.9-10.4c-4.5-7.4-9.8-14.5-13.4-22.5c-1.9-3.9-4.1-7.7-5.9-11.7
			l-4.8-12.2c-14.9-37-16.7-71.7-26.6-68.7c-4.1,1.4-7.3,9.9-9.2,24.2c-0.2,7.1-0.2,15.6,0.6,25.2c0.8,4.7,1.7,9.8,2.8,15
			c0.6,2.6,1,5.3,1.8,8c0.9,2.7,1.8,5.4,2.7,8.2c6.1,20.2,16.2,38.9,27.4,56.9c6.2,8.6,12.1,17.5,19.4,25.2l5.3,6
			c1.7,2,3.5,4,5.5,5.8l11.6,10.9c16.2,13.8,33.8,26.3,53.2,35.3c9.4,5.1,19.7,8.4,29.7,12.2c5,1.8,10.3,2.8,15.5,4.3
			c5.2,1.3,10.2,2.9,15.8,3.5l13.2,1.9l6.6,0.9l6,0.3l12,0.5l3,0.1l1.5,0.1h0.8h0.9h0.1h0.2h0.4l6.4-0.3c8.6-0.6,17.2-0.5,25.6-2.2
			c8.5-1.4,17-2.4,25.2-5c33.3-8.4,64.6-24,91.3-45.2c26.7-21.3,49.1-47.9,64.5-78.3l5.4-11.5c1.7-3.9,3.8-7.6,5-11.7l4.3-12l2.1-6
			c0.6-2,1-4.1,1.6-6.2l3-12.4c0.5-2.1,1.1-4.1,1.4-6.2l0.9-6.5c1.1-8.6,2.8-17.5,2.7-25.2c3.5-29.7,1.1-61.2-7.5-90.9
			c-8.5-29.8-23.2-58-42.8-82.5c-19.6-24.5-44.1-45.2-71.7-60.4l-21.3-10.4c-7.4-2.9-14.8-5.6-22.2-8.3c-7.6-2.2-15.3-4.1-23-6.1
			c-7.9-1.6-16.2-2.6-24.3-3.9l-3.1-0.4l-2.7-0.2l-5.5-0.3l-10.9-0.5l-2.7-0.1l-1.4-0.1h-1.4h-0.4h-0.7l-5.9,0.3l-11.9,0.6l-5.9,0.3
			c-2,0.2-3.9,0.6-5.9,0.8l-11.7,1.8c-7.9,0.9-15.5,3.3-23.2,5.2c-30.6,8.4-59.4,22.9-84.5,42.1c-24.7,19.2-46.1,43.2-62.3,70.3
			c-2,3.4-4.3,6.7-6,10.2l-5.2,10.7c-1.7,3.6-3.6,7.1-5,10.7l-4.1,11.1c-1.3,3.7-2.8,7.4-4,11.2l-3.1,11.5l-3,11.5l-2,12.2
			c-2.5,12.4,0.8,28,2.9,33.4c4.5,10.3,8.9-2.6,13.6-22.1c8.8-32.2,23.9-64.6,45.7-93.7c2.5-3.8,5.8-7,8.7-10.6l4.4-5.3l2.2-2.6
			l2.5-2.4c3.3-3.2,6.5-6.5,9.8-9.8l2.5-2.5l2.7-2.2l5.4-4.5c6.9-6.3,14.8-11.4,22.4-16.8c3.8-2.8,8.1-4.8,12.1-7.2
			c4.1-2.3,8-4.9,12.4-6.7c20.1-10.4,42.2-16.6,64.4-19.8c5.6-0.6,11.1-1.9,16.8-1.8l8.4-0.3l4.2-0.1l2.1-0.1h1.1h0.5h0.2l17.6,1.2
			l4.5,0.3c1.5,0.1,2.7,0.4,4.1,0.7l8,1.4l8,1.3c2.7,0.5,5.4,1.4,8.1,2.1l8.1,2.2c2.7,0.7,5.4,1.4,8,2.5l15.6,6c5,2.4,10,5,15,7.5
			c19.6,10.7,37.5,24.2,53.1,40.1c15.5,16,28.1,34.6,37.9,54.5l3.6,7.5l1.8,3.7l1.4,3.9l5.6,15.6l4.1,16.1c0.3,1.3,0.7,2.7,1,4
			l0.6,4.1l1.2,8.2l1.3,8.2l0.4,8.3l0.4,8.3l0.2,4.2v0.4v0.9l-0.1,2.3l-0.8,18.1c-0.6,5.6-1.6,10.6-2.3,15.9
			c-3.7,21.4-10.8,43.1-20.9,63c-11.1,19.2-25,36.5-41.1,51.6c-50.9,48.1-126.2,67.4-193.6,50.4l-12.6-3.2l-12.2-4.4l-6.1-2.2
			c-2-0.8-3.9-1.8-5.9-2.7l-11.8-5.5c-15.1-8.5-29.9-17.8-42.6-29.7C101.124,396.8,95.424,390.2,89.424,383.9z"/>
		<path d="M261.124,86.5c-4.9-2.3-9,0.7-12.1,5.1c-7,9.9-11.3,21.3-13.7,33.3c-3.7-0.2-7.4-0.4-11.1-0.5l-1.9-0.1h-2.6l-3.8,0.1
			c-3.1,0.3-7.1,0.6-10,1.4c-6.3,1.1-12.3,3.5-18,6.4c-5.7,3-10.9,6.8-15.7,11.1c-4.6,4.5-8.8,9.5-12.1,15.1
			c-6.6,11.3-10.3,24.3-9.9,37.7c0.1,1.4,0,2.2,0.1,4.1l0.7,5.5c0.6,3.6,1.3,6.6,2.3,9.9c1.9,6.4,4.9,12.5,8.5,18.1
			c3.7,5.6,8.2,10.7,13.2,15.1c5.2,4.3,10.8,8.1,17,10.9c6.2,2.7,12.7,4.9,19.5,5.8c3.4,0.6,6.7,0.6,10.1,0.8h6.7
			c-0.1,1.1-0.3,2.2-0.4,3.3c-1.1,12.3-1.7,24.6-0.7,36.8c-0.4,10.6-0.6,21.3-0.5,31.9c-7.2,0.4-14.5,0.7-21.7,1.2
			c-18,1.2-32.9,5.8-31.6,14.8c1.2,8.3,14,14.4,32.4,15.3c7.3,0.4,14.7,0.8,22,1.2c0.5,7,1.1,14,1.9,21c1.2,9.7,5.8,17.8,14.8,17.1
			c8.3-0.7,14.4-7.5,15.3-17.5c0.6-6.3,1.2-12.7,1.8-19.1l6.4,0.2l3.1,0.1c1.1,0,2.6,0,3.9-0.1c2.7,0,5.4-0.3,8.1-0.7
			c10.7-1.5,21.1-5.7,29.8-12.1c14.1-10.1,24.3-25.7,27.7-42.7c0.5-2.1,0.7-4.7,1-7l0.2-1.8v-1.3l0.1-2.5v-1.3v-1.4v-0.8l-0.2-3.2
			c-0.1-2.1-0.4-4.3-0.8-6.4c-1.4-8.5-4.4-16.7-8.8-24c-8.7-14.7-22.9-25.8-39-30.6c-4-1.2-8-2.1-12.7-2.6c-2.5-0.4-4-0.3-5.7-0.4
			l-3.2-0.1l-2.5,0.1l-4.8,0.1c3.1-15,2.5-30.2,2.2-45.3c0.2-6.6,0.2-13.2,0.2-19.9c0.1-1.2,0.1-2.4,0.2-3.7c0-0.2-0.1-0.4-0.2-0.7
			c0-2.3,0-4.5,0-6.8c15.7,0,31.4,0.1,47.1,0.5c4.3,0.1,11.1-3.4,13.2-5.8c4.2-4.9-1.3-9-9.5-12.1c-15.4-5.9-32.8-9.8-51.1-12.4
			c-0.1-11.5,0-22.9,0.6-34.3C267.024,91.3,263.524,87.6,261.124,86.5z M227.824,232.3l-5.8-0.5c-2.3-0.4-4.3-0.6-6.4-1.3
			c-8.2-2.2-15.3-6.9-20.3-13.2c-2.5-3.1-4.6-6.5-6-10.2c-0.6-1.8-1.3-3.7-1.6-5.6l-0.3-1.4c-0.1-0.4-0.1-0.7-0.1-1.1l-0.2-1
			l-0.1-0.5v-1.1l-0.1-3.5l0.2-2.9c0.3-1.9,0.5-3.9,1.1-5.7c1-3.7,2.5-7.3,4.7-10.5c4.3-6.4,10.7-11.5,18-13.9
			c1.7-0.5,4-1.2,5.1-1.3l1-0.2c0.3-0.1,1.4-0.1,2-0.2l2.3-0.1l1.1-0.1h0.2h9.2C230.024,182.6,228.224,207.4,227.824,232.3z
			 M267.024,266l3.8-0.1h0.5h0.2h0.1c-0.4,0-0.7,0-0.8,0l0,0l0,0l0,0h0.9h1.9c3.1,0,3.7,0.3,5.1,0.3c1.5,0.3,3.3,0.5,4.9,1
			c6.3,2.5,11.5,6.9,15.6,12c6.3,8.4,8.6,18.8,6.5,29.2c-1.8,9.5-8.5,18.5-17,23.4c-4.3,2.6-9.1,4.1-14.2,4.6l-1.9,0.1l-1,0.1h-1.5
			l-5.9,0.1h-0.9c-0.1-9.4-0.4-18.8-0.8-28.2c0.6-4.4,1-8.9,0.8-13.3c-0.2-9.8-1.1-19.6-2.1-29.5L267.024,266z"/>
	</g>
</g>
<g>
</g>
<g>
</g>
<g>
</g>
<g>
</g>
<g>
</g>
<g>
</g>
<g>
</g>
<g>
</g>
<g>
</g>
<g>
</g>
<g>
</g>
<g>
</g>
<g>
</g>
<g>
</g>
<g>
</g>
</svg>
