<?xml version="1.0" encoding="iso-8859-1"?>
<!-- Generator: Adobe Illustrator 19.0.0, SVG Export Plug-In . SVG Version: 6.00 Build 0)  -->
<svg version="1.1" id="Capa_1" xmlns="http://www.w3.org/2000/svg" xmlns:xlink="http://www.w3.org/1999/xlink" x="0px" y="0px"
	 viewBox="0 0 95.929 95.929" style="enable-background:new 0 0 95.929 95.929;" xml:space="preserve">
<g>
	<g>
		<path d="M11.465,87.419c2,1.4,4,2.4,6.1,3.3c4.1,1.8,8.4,2.9,12.7,3.7s8.6,1.2,13,1.2c2.1,0.2,4.3,0.3,6.4,0.3
			c6.8,0.1,13.7-0.5,20.4-2.1c3.4-0.8,6.7-1.8,10-3.3c1.6-0.7,3.2-1.6,4.8-2.7c1.5-1.1,3.1-2.3,4.4-3.9c0.8-0.9,1.4-2,1.8-3
			c0.4-1.1,0.5-2.1,0.4-3s-0.4-1.5-0.7-1.8c-0.3-0.3-0.7-0.4-1.2-0.4c-0.8,0.1-1.5,1-2.1,1.7c-0.7,0.7-1.5,1.5-2.6,2.6
			c-2.1,1.9-5,3.3-8,4.4s-6.2,1.9-9.4,2.6c-5.2,1.1-10.5,1.8-15.9,2.1c-5.4,0.3-10.8,0.2-16.2-0.4c-4.7-1.2-9.3-2.5-13.7-4.3
			c-2.1-0.9-4.2-1.9-6-3s-3.3-2.6-3.8-3.7c-0.1-0.1-0.1-0.3-0.2-0.4c0-0.1,0-0.1-0.1-0.2l0,0l0,0l0,0v-0.1v-0.5v-0.1v-0.1v-0.5v-3.8
			v-5.3c1.8,1.8,3.9,3.1,6.2,4.2c6.1,2.7,12.4,4.4,18.8,5.3c3.2,0.5,6.4,0.7,9.7,0.8h2.5c0.8,0,1.5,0,2.4-0.1
			c1.7-0.1,3.3-0.2,4.9-0.4c1.6,0,3.2-0.1,4.8-0.2c5.1-0.4,10.2-1.3,15.2-3c2.5-0.8,5-1.9,7.4-3.3c1.2-0.7,2.4-1.5,3.5-2.4
			s2.2-2,3.1-3.3c1.1-1.5,1.6-3.4,1.3-4.7c-0.1-0.7-0.4-1.2-0.7-1.5c-0.3-0.3-0.7-0.4-1.2-0.4h-0.1c1.5-6.4,2.2-13.9,2.4-21.4
			c0.2-5.3,0.3-10.5,0.4-15.8v-1v-0.3v-0.1v-0.1v-0.3v-0.5v-0.3l-0.1-0.4c0-0.3-0.1-0.6-0.2-0.9c-0.1-0.5-0.3-1-0.4-1.4
			c-0.7-1.8-1.8-3.2-2.9-4.4c-2.3-2.3-4.9-3.8-7.4-5.1c-5.2-2.5-10.6-3.9-16-4.8c-5.4-0.7-10.9-1-16.3-0.9c-2.7,0-5.4,0-8.1,0.1
			c-4.3,0.2-8.6,0.7-12.9,1.6s-8.5,2.1-12.7,4c-2.1,1-4.1,2.1-6.1,3.7c-1,0.8-1.9,1.7-2.8,2.9c-0.9,1.1-1.6,2.5-2.1,4
			c-0.2,0.8-0.4,1.6-0.4,2.4c0,0.5,0,0.6,0,0.9v0.8l0.3,3.1l0.3,6.2c0.2,4.7,1.1,8.6,2.9,8.2c1.6-0.3,2.8-3.7,3-8.5
			c0-0.9,0.1-1.7,0.1-2.6c0.2,0.2,0.4,0.5,0.6,0.7c1.8,2,4.2,3.6,6.7,4.7c6.1,2.7,12.4,4.4,18.8,5.3c3.2,0.5,6.4,0.7,9.7,0.8h2.5
			c0.8,0,1.5,0,2.4-0.1c1.7-0.1,3.3-0.2,4.9-0.4c1.6,0,3.2-0.1,4.8-0.2c5.1-0.4,10.2-1.3,15.2-3c2.5-0.8,5-1.9,7.4-3.3
			c0.6-0.4,1.2-0.7,1.8-1.2c0,3.8,0,7.5,0,11.3c-1.4,1.4-3.4,2.6-5.5,3.5c-2.1,1-4.4,1.8-6.7,2.5c-7.5,2.4-15.5,3.7-23.7,4
			c-7.3-1.1-14.5-1.9-21.4-3.6c-3.5-0.8-6.9-1.9-9.9-3.3c-1.5-0.7-2.9-1.6-4.1-2.5c-0.6-0.5-1-1-1.4-1.4c-0.4-0.5-0.6-1-0.7-1.3
			c0-0.1-0.1-0.1-0.2-0.2c-0.1-0.1-0.2,0-0.3,0s-0.1,0-0.2,0c-0.1,0-0.1-0.2-0.2-0.2c-0.1-0.2-0.3-0.3-0.4-0.3
			c-0.5-0.3-0.9-0.2-1.3,0.1c-0.2,0.2-0.4,0.4-0.5,0.6c-0.1,0.2-0.3,0.5-0.3,0.8c-0.2,1.1-0.1,2.4,0.4,3.6c0.5,1.2,1.3,2.3,2.2,3.3
			c1.8,2,4.2,3.6,6.7,4.7c6.1,2.7,12.4,4.4,18.8,5.3c3.2,0.5,6.4,0.7,9.7,0.8h2.5c0.8,0,1.5,0,2.4-0.1c1.7-0.1,3.3-0.2,4.9-0.4
			c1.6,0,3.2-0.1,4.8-0.2c5.1-0.4,10.2-1.3,15.2-3c2.5-0.8,5-1.9,7.4-3.3c0.6-0.4,1.3-0.8,1.9-1.2c0,3.3,0,6.7-0.1,10
			c0,0.3,0,0.6,0.1,1c-1.4,1.4-3.4,2.6-5.5,3.5c-2.1,1-4.4,1.8-6.7,2.5c-7.5,2.4-15.5,3.7-23.7,4c-7.3-1.1-14.5-1.9-21.4-3.6
			c-3.5-0.8-6.9-1.9-9.9-3.3c-1.5-0.7-2.9-1.6-4.1-2.5c-0.6-0.5-1-1-1.4-1.4c-0.4-0.5-0.6-1-0.7-1.3c0-0.1-0.1-0.1-0.2-0.2h-0.1
			c0-3,0-6,0.1-8.9c0-0.9-0.7-2.3-1.1-2.7c-1-0.9-1.8,0.3-2.4,2c-2.2,5.6-3.1,12.4-3.3,19.3l-0.2,6.3l-0.1,1.6v0.8v1
			c0,0.4,0.1,0.9,0.2,1.3c0.1,0.3,0.2,0.6,0.3,1c0.3,0.7,0.6,1.4,0.9,2C7.565,84.419,9.465,86.019,11.465,87.419z M10.565,19.419
			v-0.2v-0.1c0-0.1,0-0.3,0.1-0.4c0.1-0.3,0.2-0.5,0.3-0.8c0.5-1.2,1.8-2.4,3.3-3.4s3.3-1.9,5.1-2.7c6-2.5,12.7-3.9,19.4-4.7
			c6.7-0.8,13.6-0.9,20.4-0.3c6,1.2,11.9,2.8,17.2,5.1c2.6,1.2,5.2,2.6,6.9,4.2c0.8,0.8,1.5,1.7,1.7,2.3c0,0.1,0.1,0.2,0.1,0.3
			c0,0,0,0,0,0.1c0-0.2,0.1,0.6,0.1,0.7v2.4c0,0.1,0,0.3,0,0.5c-1.4,1.4-3.4,2.5-5.4,3.5c-2.1,1-4.4,1.8-6.7,2.5
			c-7.5,2.4-15.5,3.7-23.7,4c-7.3-1.1-14.5-1.9-21.4-3.6c-3.5-0.8-6.9-1.9-9.9-3.3c-1.5-0.7-2.9-1.6-4.1-2.5
			C11.665,21.219,10.565,19.419,10.565,19.419z"/>
	</g>
</g>
<g>
</g>
<g>
</g>
<g>
</g>
<g>
</g>
<g>
</g>
<g>
</g>
<g>
</g>
<g>
</g>
<g>
</g>
<g>
</g>
<g>
</g>
<g>
</g>
<g>
</g>
<g>
</g>
<g>
</g>
</svg>
