<?xml version="1.0" encoding="iso-8859-1"?>
<!-- Generator: Adobe Illustrator 19.0.0, SVG Export Plug-In . SVG Version: 6.00 Build 0)  -->
<svg version="1.1" id="Capa_1" xmlns="http://www.w3.org/2000/svg" xmlns:xlink="http://www.w3.org/1999/xlink" x="0px" y="0px"
	 viewBox="0 0 95.679 95.679" style="enable-background:new 0 0 95.679 95.679;" xml:space="preserve">
<g>
	<g>
		<path d="M56.239,34.339c0.2-5,0.2-9.9-0.5-14.9c-0.2-1.6-1.1-2.9-2.9-2.8c-1.6,0.1-2.8,1.3-3,2.9c-0.3,2.9-0.7,5.9-0.7,8.9
			c0.1,4.8,0.5,9.5,0.7,14.3c0,0.2,0-0.2,0,0l0,0c-0.2,1.4,0.7,2.8,2.2,3.1l0.4,0.1c8.4,2,16.9,0.8,25.3,1.3c0.4,0,1-0.7,1.2-1.1
			c0.4-1-0.1-1.8-0.8-2.4c-2.4-2-5.3-2.9-8.3-3.1c-3.3-0.3-6.7-0.6-10-0.8c2.1-1.6,4.1-3.3,5.9-5.2c3.4-3.5,6.6-7.3,9.9-10.9
			c7.7-4.7,13.2-12,19.8-17.9c0.3-0.3,0.3-1.2,0.1-1.7c-0.4-0.9-1.3-1.2-2.3-1.1c-3.2,0.3-5.9,1.8-8.3,3.8
			c-5.6,4.8-11.4,9.4-16.3,15.1c-0.7,0.6-1.4,1.2-2.1,1.8C62.939,27.139,59.339,30.539,56.239,34.339z"/>
		<path d="M16.739,49.639c-0.4,1,0.1,1.8,0.8,2.4c2.4,2,5.3,2.9,8.3,3.1c3.3,0.3,6.7,0.6,10,0.8c-2.1,1.6-4.1,3.3-5.9,5.2
			c-3.4,3.5-6.6,7.3-9.9,10.9c-7.7,4.6-13.2,11.9-19.8,17.8c-0.3,0.3-0.3,1.2-0.1,1.7c0.4,0.9,1.3,1.2,2.3,1.1
			c3.2-0.3,5.9-1.8,8.3-3.8c5.6-4.8,11.4-9.4,16.3-15.1c0.7-0.6,1.4-1.2,2.1-1.8c3.7-3.3,7.2-6.7,10.3-10.4c-0.2,5-0.2,9.9,0.5,14.9
			c0.2,1.6,1.1,2.9,2.9,2.8c1.6-0.1,2.8-1.3,3-2.9c0.3-2.9,0.7-5.9,0.7-8.9c-0.1-4.8-0.5-9.5-0.7-14.3c0-0.2,0,0.2,0,0l0,0
			c0.1-1.5-0.9-2.8-2.3-3.2l-0.3-0.1c-8.4-2-16.9-0.8-25.3-1.3C17.539,48.439,16.939,49.139,16.739,49.639z"/>
	</g>
</g>
<g>
</g>
<g>
</g>
<g>
</g>
<g>
</g>
<g>
</g>
<g>
</g>
<g>
</g>
<g>
</g>
<g>
</g>
<g>
</g>
<g>
</g>
<g>
</g>
<g>
</g>
<g>
</g>
<g>
</g>
</svg>
