<?xml version="1.0" encoding="iso-8859-1"?>
<!-- Generator: Adobe Illustrator 19.0.0, SVG Export Plug-In . SVG Version: 6.00 Build 0)  -->
<svg version="1.1" id="Capa_1" xmlns="http://www.w3.org/2000/svg" xmlns:xlink="http://www.w3.org/1999/xlink" x="0px" y="0px"
	 viewBox="0 0 492.802 492.802" style="enable-background:new 0 0 492.802 492.802;" xml:space="preserve">
<g>
	<g>
		<path d="M0.851,236.281l-0.5,8c-0.2,2.7-0.4,5.3-0.2,8l0.5,16c1.7,21.3,5.3,42.7,12.7,62.9c3.1,10.3,8,19.9,12.4,29.7
			c2.3,4.9,5.3,9.3,7.9,14c2.8,4.6,5.2,9.3,8.8,13.7l8,10.8l4,5.3l4.1,4.5l8.1,8.9l2,2.2l1,1.1l0.5,0.6l0.6,0.7l0.1,0.1l0.2,0.1
			l0.3,0.3l4.8,4.3c6.5,5.6,12.6,11.8,19.8,16.6c7,5,13.8,10.4,21.4,14.4c29.6,17.7,62.9,28.8,97,32.7c34,3.9,68.9,0.8,101.4-9.7
			l12-4.4c4-1.5,8.1-2.7,11.9-4.7l11.5-5.5l5.8-2.8c1.9-1,3.7-2.2,5.5-3.3l10.9-6.6c1.8-1.1,3.7-2.1,5.4-3.4l5.3-3.9
			c6.9-5.3,14.4-10.5,19.8-16c23.6-18.7,44.2-42.7,59.2-69.9c15.1-27.2,24.7-57.7,28.2-89s0.8-63.4-8-93.9l-7.7-22.5
			c-3.2-7.3-6.6-14.5-9.9-21.7c-3.8-7-8-13.8-12-20.6c-4.5-6.8-9.6-13.4-14.5-20l-1.9-2.5l-1.8-2.1l-3.7-4.1l-7.4-8.1l-1.8-2l-0.9-1
			l-0.9-1l-0.3-0.3l-0.6-0.5l-4.4-4l-8.9-8l-4.4-4c-1.5-1.3-3.2-2.4-4.8-3.6l-9.6-7.1c-6.2-5-13.4-8.6-20.2-12.7
			c-27.7-15.7-58.4-25.9-89.9-30.1s-63.7-2.3-94.5,5.4c-3.8,1-7.8,1.7-11.5,3l-11.3,3.9c-3.7,1.4-7.6,2.5-11.2,4.1l-10.8,4.9
			c-3.6,1.7-7.3,3.2-10.8,5.1l-10.3,6l-10.3,6l-10.1,7.2c-10.6,7-19.3,20.5-21.7,25.8c-4.2,10.5,8.1,4.4,25.3-6.1
			c29.1-16.6,62.8-29,99-34.1c4.5-0.9,9.1-0.8,13.7-1.3l6.9-0.6l3.4-0.3h3.5c4.6,0,9.3,0,13.9,0h3.5l3.5,0.3l7,0.6
			c9.4,0.4,18.6,2.4,27.9,4c4.7,0.7,9.1,2.3,13.7,3.4c4.5,1.3,9.2,2.2,13.6,4c21.7,6.9,41.8,18.2,59.9,31.7
			c4.4,3.5,9.2,6.6,13.2,10.7l6.2,5.8l3.1,2.9l1.6,1.4l0.8,0.7c-19.3,8-37.7,21.2-54.6,36.5c-45.7,41.6-92.4,82.1-134,128.3
			c-5.7,5.2-11.4,10.3-17.1,15.5c-35.6,33.3-70.4,67.3-101.8,104.5c-0.7,0.8-1.4,1.7-2,2.5c-7.3-8.5-13.9-17.6-19.6-27.2l-6.7-11.2
			l-5.5-11.8l-2.8-5.9c-0.9-2-1.5-4.1-2.2-6.1l-4.4-12.3c-4.7-16.7-8.6-33.9-9.2-51.4c-0.9-8.7-0.3-17.5-0.1-26.2
			c-0.1-4.4,0.9-8.7,1.3-13.1c0.7-4.3,0.8-8.7,1.8-13c2.1-8.5,3.3-17.3,6.4-25.5c1.4-4.2,2.6-8.4,4.1-12.5l5.2-12.1
			c15.7-36.9,39.1-62.8,30-67.7c-3.9-1.9-12.2,1.9-23.6,10.7c-5.2,4.8-11.2,10.9-17.4,18.4c-2.8,3.9-5.7,8.1-8.7,12.6
			c-1.5,2.3-3.1,4.5-4.4,7c-1.3,2.5-2.5,5.1-3.9,7.7c-10,18.7-16.1,39.2-20.9,59.9C3.351,215.081,1.151,225.581,0.851,236.281z
			 M109.451,402.681c19.2-16.7,38.7-33.5,56.5-51.7c28.8-29.3,56.3-59.7,84.4-89.6c58.5-42.7,106.1-98.7,158.7-148.6l1.2,1.4
			c1,1.1,1.6,2.2,2.4,3.4l4.7,6.7l4.7,6.6c1.5,2.3,2.8,4.9,4.2,7.3l4.2,7.3c1.4,2.4,2.9,4.8,3.9,7.5l6.8,15.4
			c1.9,5.3,3.5,10.6,5.4,15.9c6.4,21.5,9.5,43.9,9.2,66.2c-0.4,22.4-4.7,44.5-11.8,65.6l-2.8,7.9l-1.4,3.9l-1.8,3.8l-7.1,15.1
			l-8.5,14.4c-0.7,1.2-1.4,2.4-2.1,3.6l-2.5,3.4l-5,6.7l-4.9,6.8l-5.6,6.2l-5.6,6.2l-2.8,3.1l-0.3,0.3l-0.7,0.6l-1.7,1.5l-13.5,12.3
			c-4.4,3.5-8.6,6.4-12.9,9.7c-17.9,12.5-38.3,23-59.6,29.9c-21.5,5.8-43.7,8.2-65.9,7.5c-49.2-1.4-96.8-21.3-133.2-53.6
			C107.251,404.481,108.351,403.681,109.451,402.681z"/>
	</g>
</g>
<g>
</g>
<g>
</g>
<g>
</g>
<g>
</g>
<g>
</g>
<g>
</g>
<g>
</g>
<g>
</g>
<g>
</g>
<g>
</g>
<g>
</g>
<g>
</g>
<g>
</g>
<g>
</g>
<g>
</g>
</svg>
