<?xml version="1.0" encoding="iso-8859-1"?>
<!-- Generator: Adobe Illustrator 19.0.0, SVG Export Plug-In . SVG Version: 6.00 Build 0)  -->
<svg version="1.1" id="Capa_1" xmlns="http://www.w3.org/2000/svg" xmlns:xlink="http://www.w3.org/1999/xlink" x="0px" y="0px"
	 viewBox="0 0 492.829 492.829" style="enable-background:new 0 0 492.829 492.829;" xml:space="preserve">
<g>
	<g>
		<path d="M26.332,298.425l-5.3,9.9l-2.6,4.9l-0.7,1.2l-1,2.1l-1.2,2.5c-1,2.5-2.5,6.2-3,9c-0.8,2.9-1.2,6.2-1.3,9.5
			c-0.3,6.7,1.3,14.5,5.4,21.2c4,6.8,10.2,11.8,16.2,14.7c6.1,3,12.1,4.2,17.7,4.8c1.6,0.1,3,0.2,4.2,0.2
			c-0.1,16.4-0.2,32.8-0.3,49.2v2.1v1.1v2.1l0.1,2.1l0.1,1.1c0,0.3,0,0.7,0.1,1.4c0.3,2.4,0.6,5.1,1.1,7.2s1,4.2,1.7,6.2
			c2.7,8.1,7.1,15.6,12.8,21.8c11.3,12.6,28.2,20.3,45.4,20.1h0.3c1,0,2-0.1,3-0.3c43.5-7.3,86.9-14.8,130.3-22.5l32.5-5.9l8.1-1.5
			l4.3-0.8l1.1-0.2l1.7-0.4l3.4-0.9c7.9-2.5,14.8-6.5,20.8-11.8c11.9-10.4,19.6-25.6,20.3-41.4c0.2-4.5,0-6.6,0-9.5l-0.2-8.2
			l-0.4-16.5c-0.7-28-2.7-53-6.1-67.8c3.3-0.5,6.6-1.1,9.8-2c11.9-3.2,23.1-9,32.4-16.7c18.9-15.5,30.3-38.8,31-63
			c2.1-10.1,2.1-21.6-0.5-32.4c-2.5-10.9-7.5-21.4-14.4-30.6c-6.9-9.1-15.8-16.9-25.9-22.7l-7.8-3.9c-2.7-1.1-5.4-2.1-8.2-3.1
			c-2.8-0.8-5.6-1.6-8.5-2.3c-3-0.6-6.4-1.1-9.5-1.5l-1.2-0.2h-0.9l-1.7-0.1l-3.4-0.2h-0.9h-0.4h-1.1h-0.1h-0.3l-2.2,0.1l-4.4,0.2
			c-5.8,0.5-11.6,1.4-17.2,3.1c-11.3,3.2-21.9,8.5-31.1,15.6s-17.1,15.9-23.1,25.9c-1.6,2.4-2.9,5-4.2,7.7c-1.4,2.6-2.4,5.3-3.4,8
			c-1.1,2.7-2,5.5-2.7,8.3l-1.2,4.2l-0.9,4.8c-1,5.4,2.5,9.9,4.8,11.8c4.7,3.4,9-0.5,12.6-6.5c6.3-10.1,13.4-18.5,21.2-25.8
			c7.9-7.2,16.5-13.1,25.8-17.2c5.5-2.6,11.5-3.9,17.5-4.5c1.5-0.1,3-0.4,4.5-0.3h2.2h1.1h0.5c3.7,0.4,7.9,0.7,9.7,1.4
			c1.2,0.3,2.4,0.5,3.9,1.1c1.4,0.5,2.8,0.8,4.1,1.4l4,1.7l3.8,2.1c4.9,3,9.4,6.6,13.2,10.8c3.8,4.2,6.8,9,9.2,14.1
			c2.4,5,4,10.4,4.7,16c0.3,1.4,0.4,2.8,0.4,4.2l0.1,2.1l0.1,1.1l0,0v0.4l-0.2,5.7l-0.5,3.6c-0.8,5-2.3,10.9-4.6,16
			c-3.1,4.8-6.9,9-11.1,12.6c-13.3,11.7-31.8,15.8-48.5,11.8c-8.3-1.9-16.3-5.7-23-11.3c-6.9-5.4-12.4-12.6-16.4-20.8
			c-1.3-2.3-2.1-4.6-3.5-6.7c-1-2.1-2.4-4.1-3.8-5.8c-2.6-3.4-6.2-5.8-10.7-5.3c-4.1,0.4-7.6,3.1-10,8.2c-1,2.5-1.7,5.5-1.9,9
			c0.1,3.4,0.2,7.3,1.5,11.2c1.9,7.2,5.2,14,9,20.5c4,6.4,8.7,12.4,14.3,17.6c5.6,5.1,11.9,9.7,18.8,13.1c3.4,1.9,7,3.1,10.7,4.5
			c3.8,1.1,7.2,2.2,11.4,2.8l5,0.7l2.5,0.3l1.9,0.1h0.6c-4,14.5-6.7,38.8-7.4,69.2l-0.3,16l-0.2,8l-0.1,4c-0.1,0.9-0.1,1.8-0.2,2.6
			c-0.9,7-4.8,13.6-10.3,17.9c-2.7,2.2-6,3.8-9.1,4.6l-0.9,0.2l-0.4,0.1l-0.9,0.2l-3.8,0.6l-8,1.2l-31.9,4.8
			c-42.5,6.4-85,13.1-127.2,20.2l-2.8,0.5c-6.5-0.2-12.7-3.2-17.2-8c-2.4-2.5-4.2-5.6-5.3-8.8c-0.3-0.8-0.4-1.7-0.7-2.5
			c-0.2-0.8-0.2-1.2-0.4-1.8c-0.1-0.9-0.2-2.7-0.3-4v-3.5c-0.2-22.9-0.4-45.8-0.5-68.7v-0.2c-0.1-8.6-7.1-15.6-15.7-15.5l-19.3,0.1
			c-2.1,0-4-0.3-5.4-0.7c-1.4-0.4-2.4-1-2.9-1.4s-0.7-0.7-0.9-1.3c-0.2-0.6-0.5-1.5-0.2-3c0.1-0.6,0.3-1.7,0.5-2.2
			c0.1-0.3,0.2-0.6,0.2-0.9c0-0.1,0.2-0.5,0.3-0.9l0.5-1.1l0.5-1.1l0.2-0.5l1.1-2.1l2.2-4.4l35.6-69.9l0.2-0.3
			c0.9-1.9,1.5-4,1.4-6.2l-0.3-28.8c0-9.5,0.1-18,1.3-27c2-17.8,6.7-35.2,13.9-51.6c6.2-11.9,13.4-23.3,21.9-33.6
			c8.5-10.3,18-19.7,28.3-28.1l7.9-6c2.7-2,5.5-3.7,8.3-5.5c2.8-1.9,5.5-3.4,8.3-5c2.8-1.5,5.2-3.1,8.7-4.7l9.3-4.4
			c3-1.3,6.1-2.6,9.2-3.7c6.2-2.3,12.4-4.3,18.8-6c12.7-3.3,25.9-5.2,38.9-5.6l4.8-0.1h2.7h1.4h0.3c0.3,0-0.2,0-0.1,0h0.2h0.6
			l9.8,0.6c3.3,0.3,6.6,0.1,9.8,0.8l9.7,1.6c25.8,4.6,50.6,14.8,71.8,30.3c21.3,15.3,39.2,35.2,52.2,58c3.2,5.7,5.8,11.7,8.7,17.6
			l3.4,9.2c1.1,3.1,2.5,6.1,3.1,9.3l2.5,9.5l1.2,4.8l0.7,4.6l1.5,9.2l0.4,2.3c0.1,0.8,0.1,1.8,0.2,2.7l0.3,5.5
			c4.3,53.1-17.8,106.1-56.8,141.4c-3.9,3.5-6.4,8.7-6.4,14.3v0.3c-0.1,17.5-0.3,34.9-0.4,52.3c-0.1,11.1,3.4,28.6,5.8,34.1
			c4.9,10.9,9-3.3,12.1-24.4c2.8-18.7,5.1-38.5,7.1-59.3c22.1-17.2,41.7-41,54.7-69.3c6.6-14.4,11.7-30,14.5-46.1
			c1.4-8.1,2.5-16.2,2.9-24.5l0.3-6.2v-0.8v-0.4v-1.1v-1.5l-0.1-2.9l-0.4-11.6c-1.9-28.2-9.4-55.6-21.9-80.5
			c-12.5-25-30.1-47.5-51.4-65.8c-21.3-18.4-46.4-32.4-73.3-41c-27-8.6-55.7-11.8-83.9-9.3c-14.1,1.2-28.2,3.9-41.8,8
			c-6.8,2-13.5,4.4-20.1,7.1c-1.6,0.7-3.3,1.3-4.9,2.1l-2.4,1.1l-1.2,0.5l-1.6,0.8l-8.7,4.4c-2.8,1.3-6.2,3.4-9.3,5.2
			c-3.1,1.9-6.6,3.7-9.4,5.8l-8.8,6.1c-2.9,2.1-5.6,4.4-8.4,6.6c-2.8,2.2-5.5,4.5-8.1,7c-2.6,2.4-5.3,4.8-7.8,7.3
			c-4.9,5.2-9.9,10.3-14.3,16c-18.2,22-31.5,48-39.5,75.5c-3.9,13.8-6.3,27.9-7.4,42.1c-0.4,3.5-0.3,7.1-0.4,10.7
			c-0.1,3.5-0.2,7.3-0.1,10.4l0.3,19.6l-0.1,5.3L26.332,298.425z"/>
	</g>
</g>
<g>
</g>
<g>
</g>
<g>
</g>
<g>
</g>
<g>
</g>
<g>
</g>
<g>
</g>
<g>
</g>
<g>
</g>
<g>
</g>
<g>
</g>
<g>
</g>
<g>
</g>
<g>
</g>
<g>
</g>
</svg>
