<?xml version="1.0" encoding="iso-8859-1"?>
<!-- Generator: Adobe Illustrator 19.0.0, SVG Export Plug-In . SVG Version: 6.00 Build 0)  -->
<svg version="1.1" id="Capa_1" xmlns="http://www.w3.org/2000/svg" xmlns:xlink="http://www.w3.org/1999/xlink" x="0px" y="0px"
	 viewBox="0 0 489.1 489.1" style="enable-background:new 0 0 489.1 489.1;" xml:space="preserve">
<g>
	<g>
		<path d="M0,94.55l0.2,3.8c0.4,5,1.3,10,2.7,14.9c2.7,9.7,7.4,18.9,13.5,26.8c6.1,8,13.7,14.7,22.3,19.9c2.1,1.4,4.4,2.5,6.6,3.6
			c2.2,1.2,4.6,2.1,6.9,3c2.3,1,4.7,1.7,7.2,2.4l3.7,1l2.4,0.4c-1.7,16.1-3.4,32.3-3.2,48.4c0.4,27.2,2.4,54.4,3.7,81.6
			c-11.5,48.8-4.9,98.7-7.3,148c-0.1,2.2,3.4,5.6,5.8,6.7c4.9,2.1,9-0.6,12.1-4.8c10.3-13.8,14.8-30.5,16-47.5
			c2.9-41,7.3-81.9,4-123.1c0.4-5.1,0.8-10.2,1.1-15.3c1.7-32.3,2.2-64.7-1.9-96.8c-0.3-2.1-0.8-4.2-1.4-6.1c2.7,0,5.6-0.1,8.6-1.1
			c12.2-3.3,23.7-10.1,32.7-19.6c9-9.6,15.4-21.6,17.6-35l0.6-4.4l0.3-2.2l0.1-1.6l0.1-3.1v-2.4l-0.1-2c-0.2-5.3-1-10.6-2.4-15.6
			c-2.8-10.2-7.8-19.7-14.4-27.7c-13.3-16.1-33.3-25.7-53.9-26.2c0.6,0.6,1,1.3,1.6,1.9c-0.7-0.6-1.2-1.3-1.6-1.9
			c-8.5-2-18.4-2.1-27.8-0.1s-18.5,6.2-26.4,12.1c-7.9,5.8-14.7,13.4-19.6,22.2c-1.2,2.2-2.3,4.5-3.4,6.7c-1,2.3-1.8,4.7-2.7,7.1
			c-0.7,2.4-1.4,4.9-2,7.3c-0.6,2.6-0.9,5.6-1.3,8.3l-0.1,1.1v0.7l-0.1,1.4l-0.1,2.8v0.7v0.4v1.2v0.2L0,94.55z M35.4,93.05
			c0.3-3,0.7-6.7,1.3-7.9c0.2-0.9,0.4-1.8,0.9-2.9c0.4-1.1,0.7-2.2,1.2-3.2l1.4-3l1.7-2.9c2.4-3.8,5.2-7.1,8.5-10
			c6.7-5.6,14.6-9.4,23-10.5c1-0.2,2.1-0.3,3.2-0.3l1.6-0.1l0.8-0.1l0,0h0.1l4.7,0.2c1.1,0.1,1.7,0.3,2.6,0.3
			c3.7,0.5,8.3,1.7,12.3,3.3c3.6,2.4,6.7,5.4,9.5,8.7c8.7,10.3,11.7,24.3,8.7,36.9c-1.4,6.3-4.2,12.3-8.4,17.5
			c-4.1,5.3-9.4,9.7-15.7,13c-1.7,1-3.5,1.8-5.1,3c-1.6,0.9-3.1,2.3-4.4,3.6c-2.6,2.5-4.5,6.1-4.2,10.6c0.1,0.9,0.3,1.7,0.5,2.5
			c-2.3,0.4-4.4,1.2-6.2,2.5c-0.4-0.3-0.9-0.7-1.3-1c-16.3-12.3-27-25.5-33.3-40.2c-2-4.4-2.9-9.1-3.3-13.7c0-1.2-0.3-2.3-0.1-3.5
			L35.4,93.05z"/>
		<path d="M188.8,348.35c-9,9.6-15.4,21.6-17.6,35l-0.6,4.4l-0.3,2.2l-0.1,1.6l-0.1,3.1v2.4l0.1,2c0.2,5.3,1,10.6,2.4,15.6
			c2.8,10.2,7.8,19.7,14.4,27.7c13.3,16.1,33.3,25.7,53.9,26.2c-0.6-0.6-1-1.3-1.6-1.9c0.7,0.6,1.2,1.3,1.6,1.9
			c8.5,2,18.4,2.1,27.8,0.1s18.5-6.2,26.4-12.1s14.7-13.5,19.7-22.2c1.2-2.2,2.3-4.5,3.4-6.7c1-2.3,1.8-4.7,2.7-7.1
			c0.7-2.4,1.4-4.9,2-7.3c0.6-2.6,0.9-5.6,1.3-8.3l0.1-1.1v-0.7l0.1-1.4l0.1-2.8v-0.7v-0.4v-1.2v-0.2l-0.1-1.9l-0.2-3.8
			c-0.4-5-1.3-10-2.7-14.9c-2.7-9.7-7.4-18.9-13.5-26.8c-6.1-8-13.7-14.7-22.3-19.9c-2.1-1.4-4.4-2.5-6.6-3.6
			c-2.2-1.2-4.6-2.1-6.9-3c-2.3-1-4.7-1.7-7.2-2.4l-3.7-1l-2.4-0.4c1.7-16.1,3.4-32.3,3.2-48.4c-0.4-27.2-2.4-54.4-3.7-81.6
			c11.5-48.8,4.9-98.7,7.3-148c0.1-2.2-3.4-5.6-5.8-6.7c-4.9-2.1-9,0.6-12.1,4.8c-10.3,13.8-14.8,30.5-16,47.5
			c-2.9,41-7.3,81.9-4,123.1c-0.4,5.1-0.8,10.2-1.1,15.3c-1.7,32.3-2.2,64.7,1.9,96.8c0.3,2.1,0.8,4.2,1.4,6.1
			c-2.7,0-5.6,0.1-8.6,1.1C209.2,331.95,197.8,338.85,188.8,348.35z M231.9,356.95c1.7-1,3.5-1.8,5.1-3c1.6-0.9,3.1-2.3,4.4-3.6
			c2.6-2.5,4.5-6.1,4.2-10.6c-0.1-0.9-0.3-1.7-0.5-2.5c2.3-0.4,4.4-1.2,6.2-2.5c0.4,0.3,0.9,0.7,1.3,1c16.3,12.3,27,25.5,33.3,40.2
			c2,4.4,2.9,9.1,3.3,13.7c0,1.2,0.3,2.3,0.1,3.5l-0.1,2.7c-0.3,3-0.7,6.7-1.3,7.9c-0.2,0.9-0.4,1.8-0.9,2.9
			c-0.4,1.1-0.7,2.2-1.2,3.2l-1.4,3l-1.7,2.9c-2.4,3.8-5.2,7.1-8.5,10c-6.6,5.6-14.6,9.4-23,10.5c-1,0.2-2.1,0.3-3.2,0.3l-1.6,0.1
			l-0.8,0.1l0,0h-0.1l-4.7-0.2c-1.1-0.1-1.7-0.3-2.6-0.3c-3.7-0.5-8.3-1.7-12.3-3.3c-3.6-2.4-6.7-5.4-9.5-8.7
			c-8.7-10.3-11.7-24.3-8.7-36.9c1.4-6.3,4.2-12.3,8.4-17.5C220.3,364.65,225.7,360.25,231.9,356.95z"/>
		<path d="M470.4,140.75c9-9.6,15.4-21.6,17.6-35l0.6-4.4l0.3-2.2l0.1-1.6l0.1-3.1v-2.4l-0.1-2c-0.2-5.3-1-10.6-2.4-15.6
			c-2.8-10.2-7.8-19.7-14.4-27.7c-13.3-16.1-33.3-25.7-53.9-26.2c0.6,0.6,1,1.3,1.6,1.9c-0.7-0.6-1.2-1.3-1.6-1.9
			c-8.5-2-18.4-2.1-27.8-0.1s-18.5,6.2-26.4,12.1s-14.7,13.5-19.7,22.2c-1.2,2.2-2.3,4.5-3.4,6.7c-1,2.3-1.8,4.7-2.7,7.1
			c-0.7,2.4-1.4,4.9-2,7.3c-0.6,2.6-0.9,5.6-1.3,8.3l-0.1,1.1v0.7l-0.1,1.4l-0.1,2.8v0.7v0.4v1.2v0.2l0.1,1.9l0.2,3.8
			c0.4,5,1.3,10,2.7,14.9c2.7,9.7,7.4,18.9,13.5,26.8c6.1,8,13.7,14.7,22.3,19.9c2.1,1.4,4.4,2.5,6.6,3.6c2.2,1.2,4.6,2.1,6.9,3
			c2.3,1,4.7,1.7,7.2,2.4l3.7,1l2.4,0.4c-1.7,16.1-3.4,32.3-3.2,48.4c0.4,27.2,2.4,54.4,3.7,81.6c-11.5,48.8-4.9,98.7-7.3,148
			c-0.1,2.2,3.4,5.6,5.8,6.7c4.9,2.1,9-0.6,12.1-4.8c10.3-13.8,14.8-30.5,16-47.5c2.9-41,7.3-81.9,4-123.1
			c0.4-5.1,0.8-10.2,1.1-15.3c1.7-32.3,2.2-64.7-1.9-96.8c-0.3-2.1-0.8-4.2-1.4-6.1c2.7,0,5.6-0.1,8.6-1.1
			C450,157.15,461.4,150.25,470.4,140.75z M427.3,132.15c-1.7,1-3.5,1.8-5.1,3c-1.6,0.9-3.1,2.3-4.4,3.6c-2.6,2.5-4.5,6.1-4.2,10.6
			c0.1,0.9,0.3,1.7,0.5,2.5c-2.3,0.4-4.4,1.2-6.2,2.5c-0.4-0.3-0.9-0.7-1.3-1c-16.3-12.3-27-25.5-33.3-40.2c-2-4.4-2.9-9.1-3.3-13.7
			c0-1.2-0.3-2.3-0.1-3.5l0.1-2.7c0.3-3,0.7-6.7,1.3-7.9c0.2-0.9,0.4-1.8,0.9-2.9c0.4-1.1,0.7-2.2,1.2-3.2l1.4-3l1.7-2.9
			c2.4-3.8,5.2-7.1,8.5-10c6.6-5.6,14.6-9.4,23-10.5c1-0.2,2.1-0.3,3.2-0.3l1.6-0.1l0.8-0.1l0,0h0.1l4.7,0.2
			c1.1,0.1,1.7,0.3,2.6,0.3c3.7,0.5,8.3,1.7,12.3,3.3c3.6,2.4,6.7,5.4,9.5,8.7c8.7,10.3,11.7,24.3,8.7,36.9
			c-1.4,6.3-4.2,12.3-8.4,17.5C438.9,124.45,433.5,128.85,427.3,132.15z"/>
	</g>
</g>
<g>
</g>
<g>
</g>
<g>
</g>
<g>
</g>
<g>
</g>
<g>
</g>
<g>
</g>
<g>
</g>
<g>
</g>
<g>
</g>
<g>
</g>
<g>
</g>
<g>
</g>
<g>
</g>
<g>
</g>
</svg>
