<?xml version="1.0" encoding="iso-8859-1"?>
<!-- Generator: Adobe Illustrator 19.0.0, SVG Export Plug-In . SVG Version: 6.00 Build 0)  -->
<svg version="1.1" id="Capa_1" xmlns="http://www.w3.org/2000/svg" xmlns:xlink="http://www.w3.org/1999/xlink" x="0px" y="0px"
	 viewBox="0 0 487.094 487.094" style="enable-background:new 0 0 487.094 487.094;" xml:space="preserve">
<g>
	<g>
		<path d="M393.901,448.722c10.8,0.1,19.6-8.6,19.7-19.5v-0.2c0.2-25.5,0.3-51,0.5-76.3c0.1-9.7-3.4-24.9-5.8-29.7
			c-4.9-9.5-9,2.9-12.1,21.3c-4,23.5-7.1,49.1-9.5,76.2c-37.4-2.9-77.2-4.6-117.5-5.2c-77.2-1.3-154.4-2.5-231.8-3.8
			c1.1-91.6,1.4-183.4-0.2-275.5c0.3-20.8,0.7-41.5,1-62.3c112.9,1.2,225.8,1.4,338.3-0.9c0.2,6.6,0.3,13.3,0.5,19.9
			c1.2,40.3,5.8,73.9,14.8,70.9c8.3-2.7,14.4-31.3,15.3-72.7c0.3-12.1,0.6-24.1,0.8-36.3l0,0c0.2-7.6-5.8-13.8-13.4-14h-0.7
			c-62.4-1.4-125.1-2.7-187.6-2.6c-62.4,0.2-124.7,0.8-187,1.6h-0.4l0,0c-8.2,0.1-14.8,6.8-14.6,15c0.7,57.7,1.4,115.3,2.1,173
			c-3.6,66.8-5.4,134-6.3,201.6c-0.1,10.4,8.2,19,18.7,19.2h0.5C143.701,449.922,269.001,448.322,393.901,448.722z"/>
		<path d="M479.101,261.922c2.4,0.1,6.1-3.4,7.2-5.8c2.3-4.9-0.7-9-5.2-12.1c-14.8-10.3-32.9-14.8-51.2-16
			c-44.1-2.9-88.2-7.3-132.6-4c-5.5-0.4-11-0.8-16.5-1.1c-25.1-1.2-50.1-1.8-75.1-0.5c18.6-15.2,36.1-31.9,55.3-46.4
			c1.5-1.2,1.5-5.7,0.7-8.2c-1.7-4.9-6.3-6.5-11-6.6c-15.8-0.1-29.8,5.8-41.8,14.4c-23.3,16.7-47.3,32.7-68.9,51.7l-0.6,0.5
			c-0.7,0.6-1.4,1.4-2,2.1c-6.5,8-5.4,19.7,2.6,26.3c5.4,4.4,10.9,8.6,16.6,12.6c3.1,3.1,6.2,6.3,9.4,9.4
			c20.3,19.4,41.4,38,65.3,52.9c6.8,4.2,14.8,5,20.2-2.3c4.9-6.7,4.6-14.9-1-21c-10-10.8-20.1-21.8-31.4-31.1
			c-8.5-7-17.3-13.7-26.1-20.3c12.9,1.2,25.8,2.1,38.7,1.9c29.3-0.4,58.6-2.4,87.9-3.7
			C372.201,266.122,426.001,259.522,479.101,261.922z"/>
	</g>
</g>
<g>
</g>
<g>
</g>
<g>
</g>
<g>
</g>
<g>
</g>
<g>
</g>
<g>
</g>
<g>
</g>
<g>
</g>
<g>
</g>
<g>
</g>
<g>
</g>
<g>
</g>
<g>
</g>
<g>
</g>
</svg>
