<?xml version="1.0" encoding="iso-8859-1"?>
<!-- Generator: Adobe Illustrator 19.0.0, SVG Export Plug-In . SVG Version: 6.00 Build 0)  -->
<svg version="1.1" id="Capa_1" xmlns="http://www.w3.org/2000/svg" xmlns:xlink="http://www.w3.org/1999/xlink" x="0px" y="0px"
	 viewBox="0 0 492.408 492.408" style="enable-background:new 0 0 492.408 492.408;" xml:space="preserve">
<g>
	<g>
		<path d="M156.891,426.408L156.891,426.408l-0.1,0.1l-0.3,0.9c-0.4,1.2-0.7,2.3-1.3,3.4c-0.5,1.1-1,2.1-1.7,3.1c-0.5,1-1.2,2-2,2.9
			c-2.9,3.7-6.6,7-11,9.8s-9.4,5.1-14.8,6.8c-5.2,1.7-11.5,2.8-16.1,3.2l-5.6,0.2h-0.6l0,0h-1.1l-2.2-0.1c-1.5,0-2.9-0.2-4.4-0.3
			c-1.4-0.1-2.9-0.3-4.3-0.6c-5.7-1-11.2-2.6-16.1-5s-9.2-5.5-12.3-9.1c-3.2-3.4-5.1-7.7-5.5-10.6c0-0.1-0.2-0.3-0.7-0.4
			c-0.4-0.3-1.1,0.1-1.7-0.9c-1.3-1.5-2.8-2.7-4.1-3.3c-4.9-2.4-9.1,1.6-11.5,6.5c-2,4.2-2.4,9.5-1.8,14.8c0.9,5.3,2.8,10.8,6,15.6
			c6.2,10,16.6,17.5,27.8,22c6.8,2.6,13.9,4.7,21.1,5.7c1.8,0.3,3.6,0.6,5.4,0.7l2.7,0.3l1.4,0.1l0.7,0.1h0.3h0.2h0.1l0,0h0.6
			l4.7,0.1h2.4l3-0.2c2-0.1,4-0.2,5.9-0.4l5.5-0.8c3.7-0.6,7.4-1.4,11-2.5c7.3-2,14.4-5.2,21.2-9.4c6.8-4.1,13.2-9.5,18.5-16.3
			c5.3-6.7,9.6-15,11.6-24.1c0.4-2.3,1-4.5,1.1-6.9l0.2-3.5l0.1-1.7v-0.2l-0.1-1.4v-0.3v-0.6l-0.2-2.3l-0.1-1.2l-0.1-0.6l-0.2-1
			c-0.4-2.7-1-5.4-1.7-7.9c-1.6-5.6-4.2-10.6-7.3-15.2c2.4-8.3,3.8-17,4.4-25.8c2.9-43.3,7.3-86.7,4-130.3
			c0.4-5.4,0.8-10.8,1.1-16.2c0.4-8.5,0.8-17.1,1-25.6c11,1.4,22.2,0.3,33-2.2c38.5-9.2,77.4-16.9,114.3-32.1
			c4.8-1.1,9.6-2.2,14.4-3.4c26.7-6.9,53.1-14.8,78.4-25.7c-1,48.5-1,96.9,1.2,145.1c-20.2-11.8-43.6-15.5-65.8-11.8
			c-11.9,2.1-23.7,6.3-34.2,13.2c-10.5,6.8-19.9,16.6-25.5,29.1c-3.3,7-3.5,14.7-1.9,19.7c2,5.1,5.3,7.5,9.9,7
			c4.2-0.4,7.8-2.4,10.8-4.7c3.1-2.3,5.6-4.9,8-8.1c8.6-11.8,25.6-18.3,41.3-20.2c13.8-1.8,27.5-0.4,39.6,4.9
			c6,2.7,11.3,6.3,15.4,10.7l1.5,1.6l1.3,1.8c1,1.1,1.5,2.4,2.3,3.6c0.7,1.2,1.1,2.6,1.7,3.8c0.1,0.5,0.3,1,0.4,1.5
			c0.2,0.5,0.4,0.8,0.5,2.1l-0.3,2.8l-0.1,0.7v0.4v0.1c0-0.4,0,0.9,0-0.9l0,0v0.1l-0.3,0.9c-0.4,1.2-0.7,2.3-1.3,3.4
			c-0.5,1.1-1,2.1-1.7,3.1c-0.5,1-1.2,2-2,2.9c-2.9,3.7-6.6,7-11,9.8s-9.4,5.1-14.8,6.8c-5.2,1.7-11.5,2.8-16.1,3.2l-5.6,0.2h-0.6
			l0,0h-1.1l-2.2-0.1c-1.5,0-2.9-0.2-4.4-0.3c-1.4-0.1-2.9-0.3-4.3-0.6c-5.7-1-11.2-2.6-16.1-5s-9.2-5.5-12.3-9.1
			c-3.2-3.4-5.1-7.7-5.5-10.6c0-0.1-0.2-0.3-0.7-0.4c-0.4-0.3-1.1,0.1-1.7-0.9c-1.3-1.5-2.8-2.7-4.1-3.3c-4.9-2.4-9.1,1.6-11.5,6.5
			c-2,4.2-2.4,9.5-1.8,14.8c0.9,5.3,2.8,10.8,6,15.6c6.2,10,16.6,17.5,27.8,22c6.8,2.6,13.9,4.7,21.1,5.7c1.8,0.3,3.6,0.6,5.4,0.7
			l2.7,0.3l1.4,0.1l0.7,0.1h0.3h0.2h0.1l0,0h0.6l4.7,0.1h2.4l3-0.2c2-0.1,4-0.2,5.9-0.4l5.5-0.8c3.7-0.6,7.4-1.4,11-2.5
			c7.3-2,14.4-5.2,21.2-9.4c6.8-4.1,13.2-9.5,18.5-16.3c5.3-6.7,9.6-15,11.6-24.1c0.4-2.3,1-4.5,1.1-6.9l0.2-3.5l0.1-1.7v-0.2
			l-0.1-1.4v-0.3v-0.6l-0.2-2.3l-0.1-1.2l-0.1-0.6l-0.2-1c-0.4-2.7-1-5.4-1.7-7.9c-1.1-3.6-2.6-7-4.3-10.2c0.4-2.5,0.7-5.2,0.8-8
			c1.7-34.1,3.6-68.4,3.4-102.6c-0.4-55-2.4-109.9-3.7-164.9c0.8-6.9,1.5-13.8,2.1-20.7c0.1-1.4,0-2.8-0.3-4.3
			c-1.7-7.5-9.1-12.3-16.6-10.7l-2.7,0.6c-89.5,20-177.1,53.6-266.1,79.6c-4.3,1.2-9.8,6.7-11.2,9.7c-2.7,5.9,4,8.2,13,8.6
			c29.6,1.4,63.2-4.5,96.3-13.8c51.5-14.4,103.1-28.3,154.4-43.9c0.2,12.3,0.5,24.7,0.9,37c-0.3,7.8-0.6,15.7-0.8,23.5
			c-0.2,0-0.3,0-0.5,0.1c-16,3.3-32.2,6.4-47.7,11.6c-24.9,8.3-49.3,18.1-73.8,27.3c-41.5,2.8-79.6,18.6-118.8,30.6
			c-0.2-16.7-1.1-33.3-3.1-49.9c-1.2-9.7-5.8-17.7-14.8-17c-8.3,0.7-14.4,7.5-15.3,17.5c-1.7,17.8-3.6,35.8-3.4,53.7
			c0.4,28.8,2.4,57.6,3.7,86.4c-7.8,35.1-7.2,70.8-6.9,106.5c-19.9-11.1-42.7-14.6-64.4-11c-11.9,2.1-23.7,6.3-34.2,13.2
			c-10.5,6.8-19.9,16.6-25.5,29.1c-3.3,7-3.5,14.7-1.9,19.7c2,5.1,5.3,7.5,9.9,7c4.2-0.4,7.8-2.4,10.8-4.7c3.1-2.3,5.6-4.9,8-8.1
			c8.6-11.8,25.6-18.3,41.3-20.2c13.8-1.8,27.5-0.4,39.6,4.9c6,2.7,11.3,6.3,15.4,10.7l0.9,1c-0.1,2.9-0.2,5.7-0.3,8.6
			c-0.1,2.3,3.4,6,5.8,7.1c0.3,0.1,0.6,0.2,0.9,0.3v0.2l-0.1,0.7v0.4v0.1C156.891,426.908,156.891,428.208,156.891,426.408z"/>
	</g>
</g>
<g>
</g>
<g>
</g>
<g>
</g>
<g>
</g>
<g>
</g>
<g>
</g>
<g>
</g>
<g>
</g>
<g>
</g>
<g>
</g>
<g>
</g>
<g>
</g>
<g>
</g>
<g>
</g>
<g>
</g>
</svg>
