<?xml version="1.0" encoding="iso-8859-1"?>
<!-- Generator: Adobe Illustrator 19.0.0, SVG Export Plug-In . SVG Version: 6.00 Build 0)  -->
<svg version="1.1" id="Capa_1" xmlns="http://www.w3.org/2000/svg" xmlns:xlink="http://www.w3.org/1999/xlink" x="0px" y="0px"
	 viewBox="0 0 490.328 490.328" style="enable-background:new 0 0 490.328 490.328;" xml:space="preserve">
<g>
	<g>
		<path d="M421.399,14.428c-11.3-7.1-24.3-11.8-37.5-13.5c-3.3-0.6-6.6-0.7-9.9-0.8c-1.6,0-3.5-0.2-4.8-0.1l-4,0.1l-15.9,0.3
			c-21.2,0.5-42.3,1.2-63.4,2.3c-24,1.2-44,5.8-42.2,14.8c1.6,8.3,18.7,14.4,43.3,15.3c22.1,0.8,44.4,1.6,66.6,2.4l16.6,0.5
			c2.2,0.2,4.4,0.3,6.6,0.6c2.1,0.5,4.3,0.6,6.4,1.3c8.5,2.1,16.4,6,23.3,11.3c11.1,8.5,19.2,20.9,22.4,34.7l0.8,4.5
			c0.2,0.6,0.3,1.8,0.3,2.9l0.2,3.3l0.1,1.7v0.4v0.2v0.3l0.1,3.3l0.1,6.7l0.5,26.8l2.2,107.1c-2.9,32-4.6,64.2-5.6,96.5
			c-0.5,16.2-0.9,32.3-1.1,48.5l-0.1,12.2v3l-0.2,2.3c-0.2,1.5,0,3-0.4,4.5c-0.6,6-2.6,11.7-5.1,17.1c-5,10.9-13.9,19.9-24.4,25.7
			l-4,2c-1.4,0.6-2.8,1-4.2,1.6c-1.4,0.6-2.9,0.9-4.3,1.3l-2.2,0.6c-0.7,0.2-1.3,0.2-1.9,0.3l-1.8,0.3c-0.6,0.1-1.1,0.3-2.3,0.3
			l-6.1,0.3l-11.2,0.1c-32.5,0.1-65,0.1-97.3-0.5c-5.8-0.1-14.8,3.4-17.7,5.8c-5.6,4.9,1.7,9,12.7,12.1c18.1,5.2,38.1,8.9,59.2,11.4
			c10.5,1.3,21.3,2.3,32.3,3c5.5,0.4,11,0.7,16.5,0.9l4.2,0.2h1h0.5h1.2h2.1c2.8-0.1,5.3,0,9.2-0.5c32.6-3.4,61.1-25.4,73.7-55.7
			c3.3-7.5,5.1-15.5,6.4-23.6c0.2-2,0.3-4.1,0.5-6.1c0.2-2.1,0.3-4.2,0.3-5.7l0.3-10.1l0.9-40.4c1.1-53.8,1.3-107.8-0.3-161.9
			c0.4-13.4,0.7-26.7,1.1-40.1l0.6-31.8l0.2-15.9v-2v-0.5v-1.5v-1l-0.2-4c0-2.2-0.6-6.6-1.1-10c-2.3-13.8-7.2-26.1-14.7-37.4
			C442.599,31.028,432.799,21.528,421.399,14.428z"/>
		<path d="M180.599,235.428c-49-11.5-99.1-4.9-148.6-7.3c-2.2-0.1-5.7,3.4-6.8,5.8c-2.2,4.9,0.6,9,4.8,12.1
			c13.8,10.3,30.6,14.8,47.7,16c41.1,2.9,82.2,7.3,123.6,4c5.1,0.4,10.2,0.8,15.3,1.1c25.5,1.3,50.9,1.9,76.3,0.1
			c-17.5,16.5-33.4,34.8-51.3,50.7c-1.3,1.2-0.9,5.7,0.2,8c2.2,4.7,6.8,6,11.4,5.8c15.3-0.7,28.2-7.2,38.9-16.2
			c20.8-17.5,42.3-34.3,61.2-53.9l0.5-0.5l0,0c7.1-7.4,6.9-19.2-0.5-26.3c-4.7-4.5-9.6-8.9-14.7-13.1c-2.7-3.2-5.3-6.5-8.1-9.6
			c-17.6-19.9-36-39.1-57.6-54.8c-6.1-4.5-13.8-5.6-19.8,1.2c-5.5,6.2-6,14.3-1.3,20.4c8.6,11,17.1,22.2,27.1,31.9
			c8.3,8.1,16.9,15.8,25.7,23.4c-14-1.4-28.1-2.7-42.1-2.5C235.199,232.128,207.899,234.128,180.599,235.428z"/>
	</g>
</g>
<g>
</g>
<g>
</g>
<g>
</g>
<g>
</g>
<g>
</g>
<g>
</g>
<g>
</g>
<g>
</g>
<g>
</g>
<g>
</g>
<g>
</g>
<g>
</g>
<g>
</g>
<g>
</g>
<g>
</g>
</svg>
