<?xml version="1.0" encoding="iso-8859-1"?>
<!-- Generator: Adobe Illustrator 19.0.0, SVG Export Plug-In . SVG Version: 6.00 Build 0)  -->
<svg version="1.1" id="Capa_1" xmlns="http://www.w3.org/2000/svg" xmlns:xlink="http://www.w3.org/1999/xlink" x="0px" y="0px"
	 viewBox="0 0 491.229 491.229" style="enable-background:new 0 0 491.229 491.229;" xml:space="preserve">
<g>
	<g>
		<path d="M315.39,69.22c0.9-0.8-0.1-4.6-1.4-6.8c-2.6-4.3-6.6-6.1-10.5-6.7c-12.8-1.8-22.6,1.7-30.2,7.6
			c-14.8,11.5-30.2,22.3-43.1,35.8l-0.7,0.8l0,0c-7,7.4-6.7,19.1,0.7,26.1c3.3,3.1,6.7,6,10.3,8.8c1.8,2.3,3.5,4.6,5.3,6.8
			c11.7,14,24.2,27.3,39.9,37.2c4.5,2.8,10.7,2.6,16.9-4.1c5.6-6.1,7.3-13,4.3-17.4c-5.5-7.9-10.9-16-17.8-22.6
			c-7.2-6.9-15-13.3-22.8-19.7c0,0,0,0,0.1,0c9.9,5.9,35.2,10.1,68.9,10.9c18.7,0.4,37.5,0.9,56.3,1.3l28.2,0.6l7.1,0.1l3.5,0.1
			l2.2,0.2c2.9,0.4,5.7,1.2,8.3,2.5c5.2,2.5,9.4,7,11.6,12.2c1.2,2.6,1.8,5.5,2,7.5l0.1,3.1v0.1v0.4v0.9v1.8l-0.1,7.1
			c-0.2,18.8-0.2,37.6-0.2,56.4l0.5,90.6l0.4,45.3l0.1,11.3l0.1,5.7c0,1.9,0.1,4,0,4.9c-0.1,4.7-1.7,9.3-4.3,13.3
			c-2.6,4-6.5,7.1-10.8,9.1c-2,0.9-4.9,1.7-6.3,1.9c-0.2,0.1-1.5,0.2-2.4,0.2l-1.4,0.1h-0.5h-0.1l-5.7,0.1l-45.3,0.6l-90.6,1.1
			c-54.1-2.9-108.6-4.6-163.2-5.6c-13.7-0.2-27.3-0.4-41-0.6l-20.5-0.2l-5.1-0.1h-1.3l-0.7-0.1l-1.3-0.1c-1.8-0.3-3.5-0.6-5.1-1.3
			c-6.7-2.4-11.7-8.6-13.1-15.4c-0.6-0.9-0.4-10.1-0.4-16.5v-20.6c-0.1-54.9-0.2-109.9-0.3-164.9v-20.6v-5.1c0.1-0.9,0-1.8,0.2-2.7
			c0.2-1.8,0.7-3.5,1.3-5.1c1.3-3.3,3.5-6.2,6.3-8.5c1.4-1.1,2.9-2.1,4.5-2.8c0.8-0.4,1.7-0.6,2.5-1l1.3-0.3c0.5-0.1,0.8-0.2,1-0.2
			s0.5-0.1,0.7-0.2c0.4-0.1,1.6-0.1,2.4-0.1l1.3-0.1l0,0h0.3h2.6h10.3l20.6,0.1c13.7,0.1,27.4,0.2,41.1,0.3c9.7,0.1,25-3.4,29.9-5.8
			c9.5-4.9-2.9-9-21.4-12.1c-15.3-2.6-31.4-4.8-48.2-6.7c-8.4-0.9-16.9-1.8-25.6-2.6c-2.2-0.2-4.3-0.4-6.5-0.6l-3.3-0.3l-3.7-0.1
			c-2.2,0-5.8,0.2-8.2,0.8c-2.7,0.4-5.3,1.2-7.9,2.1c-10.3,3.8-19.6,11.2-25.6,21.1c-3,5-5.1,10.5-6.3,16.3c-0.7,2.9-0.8,6-1,8.7
			l-0.3,6.9c-0.8,18.5-1.3,37.3-1.6,56.2c-0.8,45.5-1.5,90.9-2.3,136.4l-0.3,17.1c-0.1,5.1-0.5,12.7,1.8,21.3
			c3.9,15.6,14.8,29.3,29.3,36.7c7.2,3.7,15.3,5.9,23.4,6.3l2.9,0.1h2.1l4.3,0.1l8.5,0.1l34.1,0.4c91.1,1.1,182.3,1.3,273.8-0.3
			l33.9,0.6l8.5,0.1l4.2,0.1h2.1h1.1h2l2.1-0.1c0.7,0,1.3,0,2.7-0.2c2.3-0.3,5-0.6,6.9-1.1c4-0.9,8-2.2,11.8-4
			c12.1-5.4,22-15,28.1-26.8c3.1-5.9,5.1-12.3,6.1-18.8c0.3-1.6,0.4-3.3,0.5-4.9s0.2-3.6,0.2-4.4l0.1-6.7l0.4-53.8
			c0.2-35.9,0.3-71.7,0.2-107.6l-0.3-53.7l-0.1-1.8v-0.8l-0.1-1.7c0-0.8-0.3-3.1-0.6-4.9c-0.3-2-0.6-3.8-1.1-5.4
			c-0.5-1.6-0.8-3.2-1.4-4.8c-2.1-6.3-5.4-12.2-9.4-17.5c-8.1-10.5-19.7-18.2-32.6-21.3c-3.2-0.9-6.5-1.3-9.7-1.6l-4.9-0.2h-3.5
			l-13.4,0.2l-26.8,0.5c-17.9,0.4-35.7,0.9-53.6,1.3c-18.6,0.5-35.7,1.8-48.6,3.9C295.09,89.42,304.49,78.42,315.39,69.22z"/>
	</g>
</g>
<g>
</g>
<g>
</g>
<g>
</g>
<g>
</g>
<g>
</g>
<g>
</g>
<g>
</g>
<g>
</g>
<g>
</g>
<g>
</g>
<g>
</g>
<g>
</g>
<g>
</g>
<g>
</g>
<g>
</g>
</svg>
