<?xml version="1.0" encoding="iso-8859-1"?>
<!-- Generator: Adobe Illustrator 19.0.0, SVG Export Plug-In . SVG Version: 6.00 Build 0)  -->
<svg version="1.1" id="Capa_1" xmlns="http://www.w3.org/2000/svg" xmlns:xlink="http://www.w3.org/1999/xlink" x="0px" y="0px"
	 viewBox="0 0 493.329 493.329" style="enable-background:new 0 0 493.329 493.329;" xml:space="preserve">
<g>
	<path d="M251.539,358.059c-1.8-2.3-3.5-4.6-5.3-6.9c-11.7-14.1-24.3-27.4-40.1-37.3c-4.5-2.8-10.8-2.6-16.9,4.1
		c-5.6,6.1-7.3,13-4.3,17.4c5.5,8,11,16.1,17.9,22.7c7.3,7,15.1,13.4,22.9,19.8l-0.1,0.1c-9.9-6-35.3-10.1-69.3-10.9
		c-18.8-0.4-37.6-0.9-56.5-1.3l-28.3-0.6l-7.1-0.1l-3.5-0.1l-2.2-0.2c-2.9-0.4-5.7-1.2-8.3-2.5c-5.2-2.5-9.5-7-11.7-12.3
		c-1.2-2.6-1.8-5.6-2-7.6l-0.1-3.1v-0.1v-0.4v-0.9v-1.8l0.1-7.1c0.2-18.9,0.2-37.8,0.2-56.6l-0.5-91l-0.4-45.5l-0.1-11.4l-0.1-5.7
		c0-1.9-0.1-4,0-4.9c0.1-4.8,1.7-9.4,4.3-13.3c2.7-4,6.5-7.2,10.9-9.2c2.1-0.9,4.9-1.7,6.3-1.9c0.2-0.1,1.6-0.2,2.4-0.2l1.4-0.1h0.5
		h0.1l5.7-0.1l45.5-0.6l91-1.1c54.4,2.9,109,4.6,163.9,5.6c13.7,0.2,27.4,0.4,41.2,0.6l20.6,0.2l5.2,0.1h1.3l0.7,0.1l1.4,0.1
		c1.8,0.3,3.5,0.6,5.2,1.3c6.7,2.4,11.8,8.7,13.2,15.5c0.6,0.9,0.4,10.1,0.4,16.5v20.7c0.1,55.1,0.2,110.4,0.3,165.5v20.7v5.1
		c-0.1,0.9,0,1.8-0.2,2.7c-0.2,1.8-0.7,3.5-1.3,5.2c-1.3,3.3-3.6,6.3-6.3,8.5c-1.4,1.1-2.9,2.1-4.6,2.8c-0.8,0.4-1.7,0.6-2.5,1
		l-1.3,0.3c-0.5,0.1-0.8,0.2-1,0.2s-0.5,0.1-0.7,0.2c-0.4,0.1-1.6,0.1-2.4,0.1l-1.3,0.1l0,0h-0.3h-2.6h-10.3l-20.7-0.1
		c-13.8-0.1-27.5-0.2-41.3-0.3c-9.8-0.1-25.1,3.4-30,5.8c-9.6,4.9,2.9,9,21.5,12.1c15.4,2.6,31.5,4.8,48.3,6.7
		c8.4,0.9,17,1.8,25.7,2.6c2.2,0.2,4.4,0.4,6.6,0.6l3.3,0.3l3.7,0.1c2.2,0,5.8-0.2,8.2-0.8c2.7-0.4,5.3-1.2,7.9-2.1
		c10.4-3.8,19.7-11.2,25.7-21.2c3-5,5.1-10.6,6.3-16.4c0.7-2.9,0.8-6,1-8.8l0.3-7c0.8-18.6,1.3-37.5,1.6-56.5
		c0.8-45.6,1.5-91.3,2.3-136.9l0.3-17.1c0.1-5.2,0.5-12.7-1.8-21.4c-4-15.7-14.9-29.4-29.4-36.8c-7.2-3.7-15.3-5.9-23.4-6.3
		l-2.9-0.1h-2.1l-4.3-0.1l-8.6-0.1l-34.3-0.4c-91.4-1.1-183-1.3-274.9,0.3l-34.1-0.6l-8.5-0.1l-4.3-0.1h-2.1h-1.1h-2l-2.1,0.1
		c-0.7,0-1.3,0-2.7,0.2c-2.3,0.3-5,0.6-6.9,1.1c-4.1,0.9-8.1,2.2-11.8,4c-12.2,5.5-22.2,15.2-28.4,26.9c-3.1,5.9-5.2,12.3-6.1,18.9
		c-0.3,1.6-0.4,3.3-0.5,4.9s-0.2,3.6-0.2,4.5l-0.1,6.8l-0.4,54c-0.2,36-0.3,72-0.2,108l0.3,54l0.1,1.8v0.8l0.1,1.7
		c0,0.8,0.3,3.1,0.6,5c0.3,2,0.6,3.9,1.1,5.4c0.5,1.6,0.8,3.3,1.4,4.8c2.1,6.4,5.4,12.3,9.5,17.5c8.1,10.5,19.8,18.2,32.7,21.4
		c3.2,0.9,6.5,1.3,9.8,1.6l4.9,0.2h3.5l13.5-0.2l26.9-0.5c17.9-0.4,35.9-0.9,53.8-1.3c18.8-0.5,36-1.8,49-3.9
		c-10.3,10.1-19.8,21.2-30.8,30.5c-1,0.8,0.1,4.6,1.4,6.8c2.6,4.3,6.6,6.1,10.5,6.7c12.8,1.8,22.7-1.7,30.3-7.6
		c14.8-11.5,30.4-22.4,43.2-36l0.7-0.8l0,0c7-7.4,6.7-19.1-0.7-26.1C258.639,363.759,255.139,360.859,251.539,358.059z"/>
</g>
<g>
</g>
<g>
</g>
<g>
</g>
<g>
</g>
<g>
</g>
<g>
</g>
<g>
</g>
<g>
</g>
<g>
</g>
<g>
</g>
<g>
</g>
<g>
</g>
<g>
</g>
<g>
</g>
<g>
</g>
</svg>
