<?xml version="1.0" encoding="iso-8859-1"?>
<!-- Generator: Adobe Illustrator 19.0.0, SVG Export Plug-In . SVG Version: 6.00 Build 0)  -->
<svg version="1.1" id="Capa_1" xmlns="http://www.w3.org/2000/svg" xmlns:xlink="http://www.w3.org/1999/xlink" x="0px" y="0px"
	 viewBox="0 0 493.704 493.704" style="enable-background:new 0 0 493.704 493.704;" xml:space="preserve">
<g>
	<g>
		<path d="M271.275,4.601c-3.4-2.8-7.7-4.6-12.4-4.6c-10.9-0.1-19.7,8.7-19.8,19.5v0.2c-0.2,20.4-0.3,40.7-0.5,60.9
			c-0.1,8.1,2.4,20.1,4.7,26.4c-2.1-0.5-4.3-1-6.8-1.4c-12.9-1.6-31-2.2-52.1,2.3c-18.9,3.9-37.7,9.7-55.6,18.6
			c-17.8,8.8-34.6,20.8-48.6,35.6c-13.9,14.9-24.9,32.4-32.8,50.9c-7.8,18.5-12.8,37.8-15.7,57c-4.1,27.1-4.4,54.3-4.1,80.3
			c-0.4,0.6-0.8,1.3-1.1,1.9c0.4,0.1,0.8,0.2,1.2,0.3c0,3.2,0.1,6.4,0.1,9.5v0.2c0.1,5.5,3,10.7,8,13.6c7.7,4.4,17.5,1.8,21.9-5.9
			c1.6-2.8,3.2-5.5,4.8-8.2c0.4,0.1,0.8,0.2,1.2,0.3c0-0.8,0-1.5,0-2.3c8.9-15.1,18.2-29.8,28.8-43.2c13-16.4,27.6-31,44.5-41.7
			c16.7-11,36.1-17,56.6-20.3c16.5-2.6,33.8-3.4,51.4-3.7c-1.3,26.7-2.5,53.5-3.3,80.3c-0.1,3.7,1,7.5,3.5,10.7
			c5.6,7.2,16.1,8.6,23.3,2.9l0.8-0.7c64.3-49.5,127.6-101.2,190.7-153.4c0.9-0.8,1.9-1.7,2.7-2.7c7-8.5,5.8-21.1-2.7-28.1
			C397.075,108.101,333.775,56.601,271.275,4.601z M277.675,291.401c0-17.9,0-35.7-0.1-53.6v-0.2v-0.1c-0.1-10.4-8.6-18.7-18.9-18.6
			c-15.3,0.1-30.7,0.3-46.6,1.5c-15.9,1.3-32.2,3.6-48.4,8.2c-23.8,6.1-46.9,17.9-65.8,33.6c-4.1,3-7.5,6.5-11.2,9.9
			c-3.6,3.4-7.3,6.8-10.4,10.5l-9.8,10.9l-0.9,1.1c0.3-2.8,0.5-5.5,0.9-8.3c2.8-24.3,8.5-47.7,18.4-68.6c10-20.8,24.6-38.5,43.2-52
			c18.7-13.3,40.8-22.9,64.4-28.6c36.1-9.1,68.8-12.2,65.8-21.7c-0.7-2.1-3.3-4.1-7.4-5.8c2-4.2,3.8-11.7,5.3-20.6
			c2.9-17.1,5.4-35.4,7.5-54.5c28.2,27.6,59.6,55.9,92.1,83.5c22.2,19,44.4,37.9,66.6,56.9
			C374.275,213.501,325.875,252.301,277.675,291.401z"/>
		<path d="M459.175,255.201c-4.9-4.8-9,1.4-12.1,10.7c-10.3,30.5-14.8,67.5-16,105.2c-0.9,28.4-1.9,56.8-2.8,85.2
			c-50.9-1.4-101.8-2-152.9-0.1c-11.3-0.4-22.5-0.7-33.8-1.1c-60.3-1.4-120.6-1.9-180.6,0.4c-1.3-19.5-5.9-35.3-14.7-33.9
			c-8.3,1.4-14.4,15.7-15.3,36.5c-0.2,5.3-0.5,10.6-0.7,15.9l0,0c-0.3,7.3,5.3,13.5,12.6,13.9l1.3,0.1c32.1,1.5,64.4,2.9,96.5,2.7
			c60.3-0.4,120.5-2.4,180.7-3.7c40.9,4.3,82.2,6.1,123.7,6.7c10.7,0.2,19.5-8.4,19.6-19v-0.6c1-67.8-0.9-136.1,0.6-203.9
			C465.075,265.201,461.675,257.601,459.175,255.201z"/>
	</g>
</g>
<g>
</g>
<g>
</g>
<g>
</g>
<g>
</g>
<g>
</g>
<g>
</g>
<g>
</g>
<g>
</g>
<g>
</g>
<g>
</g>
<g>
</g>
<g>
</g>
<g>
</g>
<g>
</g>
<g>
</g>
</svg>
