<?xml version="1.0" encoding="iso-8859-1"?>
<!-- Generator: Adobe Illustrator 19.0.0, SVG Export Plug-In . SVG Version: 6.00 Build 0)  -->
<svg version="1.1" id="Capa_1" xmlns="http://www.w3.org/2000/svg" xmlns:xlink="http://www.w3.org/1999/xlink" x="0px" y="0px"
	 viewBox="0 0 488.578 488.578" style="enable-background:new 0 0 488.578 488.578;" xml:space="preserve">
<g>
	<g>
		<path d="M374.013,222.386l-34.8,0.5l-17.4,0.4l-8.7,0.2c-2.9,0.1-6.7,0.2-9.9,0.7c-5.3,0.5-10.4,1.6-15.5,3
			c-7.8-6.2-15.1-12.3-21.8-18.9c-3.4-3.4-6.5-7.1-9.1-11l-9-14.1l-18.7-28.9c-6.3-9.6-12.8-19.1-19.6-28.5l-2.6-3.5l-1.3-1.7
			l-0.6-0.9l-1.2-1.5l-0.2-0.2l-0.4-0.4c-1.1-1.1-1.7-2-3.1-3.4c-1.3-1.3-2.7-2.8-4.1-4c-5.2-4.8-10.9-8.9-17.1-12.3
			c-5.6-4-11.7-7.5-18.2-10.3c-10.2-4.4-21.3-6.9-32.4-7.6l-4.2-0.2l-3.4-0.1l-6.8-0.1h-13.6c-11.2,0.1-22.4,0.5-33.6,1.3
			c8.8-8.6,17.2-17.6,26.6-25.5c1-0.8,0-4.7-1.3-6.9c-2.5-4.3-6.6-6.2-10.5-6.7c-12.9-1.8-23,1.8-30.9,7.9
			c-15.3,11.7-31.3,22.7-44.7,36.6l-0.8,0.8l-0.2,0.2c-6.9,7.5-6.5,19.2,1,26.1c3.4,3.2,7,6.2,10.7,9c1.9,2.3,3.6,4.7,5.6,7
			c12.2,14.3,25.3,27.8,41.5,37.9c4.6,2.9,11,2.7,17-4.1c5.5-6.2,7.1-13.2,3.9-17.7c-5.8-8.1-11.5-16.4-18.7-23.1
			c-3.1-2.9-6.4-5.8-9.6-8.6c15.7,1.4,31.5,2.7,47.3,2.5l22.4-0.5c6.2-0.1,12.5,0.5,18.5,2.1c12.1,2.9,23.9,9.5,32.8,18.4l1.3,2.3
			l0.3,0.6l0.2,0.3l0.1,0.1c0.7,0.9-0.9-1.1-0.7-0.9l0,0v0.1l0.6,1.2l2.3,4.7c1.5,3.1,3.1,6.2,4.8,9.3c3.3,6.1,6.8,12.1,10.4,18
			c3.7,5.9,7.3,11.6,11.4,17.5c3.9,5.7,8,11.3,12,17l6,8.1c2.5,3.5,5.2,6.8,8.1,9.9c5.8,6.3,12.4,11.8,19.5,16.5
			c0.8,0.5,1.6,1,2.4,1.5c-8.1,5.9-15.3,13-21.2,20.9c-1.2,1.2-2.3,2.5-3.5,3.7l0,0c-14.2,14.9-27.5,30.6-40.4,46.6l-9.6,12.1
			l-4.7,6.1l-2.2,2.9l0,0l-0.5,0.5l-1,1.1c-5.4,5.8-11.8,10.7-18.8,14.3c-7,3.7-14.7,6-22.5,7c-7,0.8-18.7,0.4-28.8,0.6
			c-11.7,0.1-23.4,0-35.1-0.1c8.4-8.4,16.5-17.1,25.6-24.7c1-0.8,0-4.7-1.3-6.9c-2.5-4.3-6.6-6.2-10.5-6.7
			c-12.9-1.8-23,1.8-30.9,7.9c-15.3,11.8-31.3,22.9-44.7,36.7l-0.8,0.8l-0.2,0.2c-6.9,7.5-6.5,19.2,1,26.1c3.4,3.2,7,6.2,10.7,9
			c1.9,2.3,3.6,4.7,5.6,7c12.2,14.3,25.3,27.8,41.5,37.9c4.6,2.9,11,2.7,17-4.1c5.5-6.2,7.1-13.2,3.9-17.7
			c-5.8-8.1-11.5-16.4-18.7-23.1c-7.6-7.1-15.7-13.7-23.9-20.3c0.8-0.6,1.7-1.1,2.5-1.7c22,8.3,47.7,12.1,73.9,13.2l5.3,0.2l5.8,0.1
			c2.2-0.1,4.5-0.2,6.6-0.4c2.1-0.2,4.1-0.4,6.2-0.7c8.2-1.2,16.3-3.4,24.1-6.7c15.5-6.5,29.4-16.7,40-30.5
			c17.5-22.2,34.7-44.7,51.2-67.8l0.1-0.2v-0.1c5.8-8.5,13.6-15.8,22.5-21.3c6.3-2.8,12.8-4.7,19.5-5.6c2.7-0.4,5.3-0.6,8-0.7h4
			l5.2,0.1l20.6,0.4c13.8,0.2,27.5,0.3,41.3,0.2c27.5-0.2,54.9-1.1,82.3-3.1c15.6-1.2,28.5-5.8,27.4-14.8
			c-1.1-8.3-12.1-14.4-28.1-15.3C431.713,223.986,402.813,222.086,374.013,222.386z"/>
	</g>
</g>
<g>
</g>
<g>
</g>
<g>
</g>
<g>
</g>
<g>
</g>
<g>
</g>
<g>
</g>
<g>
</g>
<g>
</g>
<g>
</g>
<g>
</g>
<g>
</g>
<g>
</g>
<g>
</g>
<g>
</g>
</svg>
