<?xml version="1.0" encoding="iso-8859-1"?>
<!-- Generator: Adobe Illustrator 19.0.0, SVG Export Plug-In . SVG Version: 6.00 Build 0)  -->
<svg version="1.1" id="Capa_1" xmlns="http://www.w3.org/2000/svg" xmlns:xlink="http://www.w3.org/1999/xlink" x="0px" y="0px"
	 viewBox="0 0 488.79 488.79" style="enable-background:new 0 0 488.79 488.79;" xml:space="preserve">
<g>
	<g>
		<path d="M0.077,247.398c1.1,8.3,12.1,14.4,28.1,15.3c28.7,1.7,57.7,3.6,86.5,3.4l34.8-0.5l17.4-0.4l8.7-0.2
			c2.9-0.1,6.7-0.2,9.9-0.7c5.3-0.5,10.4-1.6,15.5-3c7.8,6.2,15.1,12.3,21.8,18.9c3.4,3.4,6.5,7.1,9.1,11l9,14.1l18.7,28.9
			c6.3,9.6,12.8,19.1,19.6,28.5l2.6,3.5l1.3,1.7l0.6,0.9l1.2,1.5l0.2,0.2l0.4,0.4c1.1,1.1,1.7,2,3.1,3.4c1.3,1.3,2.7,2.8,4.1,4
			c5.2,4.8,10.9,8.9,17.1,12.3c5.6,4,11.7,7.5,18.2,10.3c10.2,4.4,21.3,6.9,32.4,7.6l4.2,0.2l3.4,0.1l6.8,0.1h13.6
			c11.2-0.1,22.4-0.5,33.6-1.3c-8.7,8.7-17,17.7-26.5,25.6c-1,0.8,0,4.7,1.3,6.9c2.5,4.3,6.6,6.2,10.5,6.7c12.9,1.8,23-1.8,30.9-7.8
			c15.3-11.7,31.3-22.8,44.7-36.6l0.8-0.8l0.2-0.2c6.9-7.5,6.5-19.2-1-26.1c-3.4-3.2-7-6.2-10.7-9c-1.9-2.3-3.6-4.7-5.6-7
			c-12.2-14.3-25.3-27.8-41.5-37.9c-4.6-2.9-11-2.7-17,4.1c-5.5,6.2-7.1,13.2-3.9,17.7c5.8,8.1,11.5,16.4,18.7,23.1
			c3.1,2.9,6.4,5.8,9.6,8.6c-15.7-1.4-31.5-2.7-47.3-2.5l-22.4,0.5c-6.2,0.1-12.5-0.5-18.5-2.1c-12.1-2.9-23.9-9.5-32.8-18.4
			l-1.3-2.3l-0.3-0.6l-0.2-0.3l-0.1-0.1c-0.7-0.9,0.9,1.1,0.7,0.9l0,0v-0.1l-0.6-1.2l-2.3-4.7c-1.5-3.1-3.1-6.2-4.8-9.3
			c-3.3-6.1-6.8-12.1-10.4-18c-3.7-5.9-7.3-11.6-11.4-17.5c-3.9-5.7-8-11.3-12-17l-6-8.1c-2.5-3.5-5.2-6.8-8.1-9.9
			c-5.8-6.3-12.4-11.8-19.5-16.5c-0.8-0.5-1.6-1-2.4-1.5c8.1-5.9,15.3-13,21.2-20.9c1.2-1.2,2.3-2.5,3.5-3.7l0,0
			c14.2-14.9,27.5-30.6,40.4-46.6l9.6-12.1l4.7-6.1l2.2-2.9l0,0l0.5-0.5l1-1.1c5.4-5.8,11.8-10.7,18.8-14.3c7-3.7,14.7-6,22.5-7
			c7-0.8,18.7-0.4,28.8-0.6c11.7-0.1,23.4,0,35.1,0.1c-8.4,8.4-16.5,17.1-25.6,24.7c-1,0.8,0,4.7,1.3,6.9c2.5,4.3,6.6,6.2,10.5,6.7
			c12.9,1.8,23-1.8,30.9-7.9c15.3-11.7,31.3-22.8,44.7-36.6l0.8-0.8l0.2-0.2c6.9-7.5,6.5-19.2-1-26.1c-3.4-3.2-7-6.2-10.7-9
			c-1.9-2.3-3.6-4.7-5.6-7c-12.2-14.3-25.3-27.8-41.5-37.9c-4.6-2.9-11-2.7-17,4.1c-5.5,6.2-7.1,13.2-3.9,17.7
			c5.8,8.1,11.5,16.4,18.7,23.1c7.6,7.1,15.7,13.7,23.9,20.3c-0.8,0.6-1.7,1.1-2.5,1.7c-22-8.3-47.7-12.1-73.9-13.2l-5.3-0.2
			l-5.8-0.1c-2.2,0.1-4.5,0.2-6.6,0.3c-2.1,0.2-4.1,0.4-6.2,0.7c-8.2,1.2-16.3,3.4-24.1,6.7c-15.5,6.5-29.4,16.7-40,30.5
			c-17.5,22.2-34.7,44.7-51.2,67.8l-0.1,0.2v0.1c-5.8,8.5-13.6,15.8-22.5,21.3c-6.3,2.8-12.8,4.7-19.5,5.6c-2.7,0.4-5.3,0.6-8,0.7
			h-4l-5.2-0.1l-20.6-0.4c-13.8-0.2-27.5-0.3-41.3-0.2c-27.5,0.2-54.9,1.1-82.3,3.1C11.877,233.698-1.123,238.298,0.077,247.398z"/>
	</g>
</g>
<g>
</g>
<g>
</g>
<g>
</g>
<g>
</g>
<g>
</g>
<g>
</g>
<g>
</g>
<g>
</g>
<g>
</g>
<g>
</g>
<g>
</g>
<g>
</g>
<g>
</g>
<g>
</g>
<g>
</g>
</svg>
