<?xml version="1.0" encoding="iso-8859-1"?>
<!-- Generator: Adobe Illustrator 19.0.0, SVG Export Plug-In . SVG Version: 6.00 Build 0)  -->
<svg version="1.1" id="Capa_1" xmlns="http://www.w3.org/2000/svg" xmlns:xlink="http://www.w3.org/1999/xlink" x="0px" y="0px"
	 viewBox="0 0 491.853 491.853" style="enable-background:new 0 0 491.853 491.853;" xml:space="preserve">
<g>
	<g>
		<path d="M486.5,30.618c-6.1-5.6-13.5-6.8-18.7-3c-9.3,6.8-18.8,13.6-26.8,21.8c-12.8,13.2-24.4,27.6-36.6,41.6
			c-7.7,3.7-14.6,8.3-21.2,13.3c-9-8.7-18.1-17.4-26.2-26.9c-1-1.1-5.1-0.3-7.3,0.9c-4.5,2.4-6.1,6.7-6.3,10.9
			c-0.7,13.9,4,25.1,11.3,34.1l15.7,19.7l0,0c5.1,6.3,14.3,7.3,20.7,2.3l2.8-2.2c15.2-12.2,30-24.8,42.2-40.2
			c2.7-2.2,5.5-4.3,8.1-6.5c16.7-14.3,32.6-29.4,45.1-47.6C492.9,43.618,493.3,36.718,486.5,30.618z"/>
		<path d="M459.1,310.718c-0.4-15.4-0.8-30.8-1.3-46.3c-1.2-37.3-5.8-68.3-14.8-65.5c-8.3,2.5-14.4,29-15.3,67.3
			c-0.4,17.2-0.9,34.4-1.3,51.7l-0.2,6.5l-0.1,3.2l-0.2,2.2c-0.3,2.8-0.9,5.6-2.1,8.2c-2.1,5.2-6,9.7-10.6,12.8
			c-2.3,1.5-4.8,2.8-7.5,3.5c-0.6,0.3-1.3,0.3-2,0.5s-1.3,0.3-1.7,0.3c-0.6,0-0.8,0.2-1.6,0.2l-3.2,0.1l-25.1-0.3
			c-17.3-0.2-34.5-0.2-51.8-0.2c-54.1,0.2-108.2,0.7-162.2,1.4h-0.4c-3.7,0.1-7.5,1.5-10.3,4.4l-59.6,61.3l-2.3,2.3l-0.4-32.1
			c0.4-6.9,0.7-13.7,1.1-20.7v-0.1c0.4-7.3-5.3-13.5-12.6-13.9l-1.5-0.1l-9-0.5c-2.5-0.2-4.1-0.5-6.2-1c-3.8-1-7.4-2.8-10.4-5.2
			c-3-2.4-5.5-5.4-7.3-8.7c-0.5-0.8-0.9-1.7-1.2-2.5c-0.4-0.8-0.7-1.7-0.9-2.6c-0.6-1.6-0.9-3.9-1-4.9c-0.1-0.2-0.1-2.1-0.2-3.6
			v-1.1v-0.3v-0.1c0,1.7,0,0.4,0,0.7v-0.6l0.1-2.3l0.3-9.1l0.5-18.1c0.3-12.1,0.5-24.2,0.8-36.3c0.9-48.5,1.1-97.1,1.1-145.8v-18.3
			v-8.8c0.1-1.7,0.2-3.3,0.6-4.9c1.4-6.4,5.7-12.3,11.5-15.6c0.7-0.4,1.5-0.7,2.2-1.1l2.3-0.9l2.4-0.6c0.6,0,0.7-0.2,1.7-0.3
			l3.6-0.2h4.6h9.1l36.6-0.1c48.7-0.1,97.4,0,146,0.5c9,0.1,23-3.4,27.4-5.8c8.8-4.9-2.6-9-19.7-12.1
			c-56.1-10.3-124.4-14.8-193.7-16l-6.2-0.1l-3.1-0.1h-0.8h-0.4h-1.1l-1.5,0.1c-1.1,0-1.9,0-3.2,0.1l-4.6,0.6
			c-3,0.5-5.5,1.1-8.2,1.9c-10.5,3.3-19.9,9.7-27,18.1c-3.5,4.2-6.4,9-8.7,14c-2.1,5.1-3.7,10.5-4.4,16c-0.2,1.4-0.2,2.8-0.4,4.1
			c-0.1,1.4-0.2,2.9-0.2,3.8l-0.1,6.2l-0.2,12.4c-0.6,33-1.2,66.1-1.8,99.1c-0.4,33.1-0.8,66.1-1.3,99.2l-0.1,12.4v6.2v1.6v0.8
			l0.1,1.7l0.1,3.1c0.2,2.4,0.7,6.8,1.4,9.4c0.6,2.9,1.5,5.7,2.6,8.5c2.2,5.5,5,10.8,8.7,15.5c7.2,9.4,17.1,16.8,28.4,20.8
			c3.9,1.5,8,2.5,12.2,3.1c0.1,11.4,0.2,22.9,0.2,34.3l0.2,13.2v3.3v0.8v0.4l0.1,1.8l0.1,1.1c0.2,1.4,0.5,2.9,0.9,4.3
			c2.6,8.7,9.8,14.9,17.8,16.8c4,1,8.5,1,12.7-0.3c4.2-1.2,8-3.7,10.7-6.3l4.6-4.7l9.1-9.5c14.9-14.4,29.9-28.9,44.9-43.3l11.2-10.9
			c59.4,0.7,118.7,1,178,0.8l46.4-0.3l5.8-0.1l2.4-0.1l1.4-0.1l3-0.2c6.8-0.8,12-2.1,17.2-4.2c10.4-4.1,19.6-11.2,26.3-19.9
			c6.8-8.8,11.2-19.4,12.5-30.4c0.5-2.7,0.4-5.5,0.5-8.2l-0.1-5.9L459.1,310.718z"/>
	</g>
</g>
<g>
</g>
<g>
</g>
<g>
</g>
<g>
</g>
<g>
</g>
<g>
</g>
<g>
</g>
<g>
</g>
<g>
</g>
<g>
</g>
<g>
</g>
<g>
</g>
<g>
</g>
<g>
</g>
<g>
</g>
</svg>
