<?xml version="1.0" encoding="iso-8859-1"?>
<!-- Generator: Adobe Illustrator 19.0.0, SVG Export Plug-In . SVG Version: 6.00 Build 0)  -->
<svg version="1.1" id="Capa_1" xmlns="http://www.w3.org/2000/svg" xmlns:xlink="http://www.w3.org/1999/xlink" x="0px" y="0px"
	 viewBox="0 0 491.855 491.855" style="enable-background:new 0 0 491.855 491.855;" xml:space="preserve">
<g>
	<g>
		<path d="M17.7,403.346L17.7,403.346l0.1-0.1l0.1-0.1l0,0l0,0C18.2,403.046,17.4,403.546,17.7,403.346z"/>
		<path d="M0.1,245.046v0.8l0.1,1.6l0.2,6.6c0.7,8.7,1.6,17.4,3.4,26c4.7,34,19.5,66.6,40.9,93.9c-4,7.5-8.9,14.3-14.8,19.9
			c-2,1.9-4.1,3.7-6.3,5.4l-1.5,1.1c-0.4,0.3-0.9,0.7-1.8,1.2l-2.2,1.4l-0.2,0.2c-0.6,0.4-1.3,0.9-1.9,1.4c-1.2,0.9-2.4,2.2-3.5,3.4
			c-9.2,10.5-7.6,27.9,4.7,36.4c1.6,1,2.8,1.8,5.2,2.7l1.7,0.6l1.4,0.4l0.6,0.2l0.3,0.1l1.8,0.3l0.7,0.1l1.4,0.2
			c1.9,0.3,3.9,0.5,5.8,0.7c15.5,1.6,31.3,1.2,47.1-1.8c12-2.2,23.9-6.1,35.2-11.5c31.5,16.4,66.3,26.3,101.6,29.1
			c38.9,3,78.4-1.8,115.4-14.7c4.7-1.4,9.2-3.4,13.7-5.3s9-3.8,13.5-5.8l13-6.9l6.5-3.5c2.1-1.2,4.1-2.7,6.2-4l12.3-8.1
			c4-2.8,7.8-6.1,11.7-9.1c8-5.9,14.8-13.1,21.9-19.9c13.4-14.6,26-30.2,35.2-48c5.2-8.5,8.6-18,12.6-27.2c1.8-4.7,3-9.6,4.6-14.4
			c1.5-4.8,3-9.5,3.8-14.9c0.6-3,1-6.5,1.2-10.1s0.5-7.5-0.1-10.4c-0.8-6.1-2-11.7-3.1-14.3c-2.1-5.3-4.4-4.6-6.7-0.2
			c-1.1,2.2-2.3,5.4-3.4,9.2c-0.6,1.9-1.1,4-1.7,6.3c-0.5,2.2-1.6,4.6-2.3,7.1c-1.3,4-2.7,8.1-4,12.2c-1.4,4-3.4,7.9-5.1,11.9
			c-3.1,8.1-7.8,15.6-12,23.4c-9.5,15-20.1,29.8-33.6,42.5l-4.8,4.9l-5.3,4.5c-3.6,3-7,6.1-10.7,9c-7.7,5.3-15,11.3-23.4,15.9
			l-6.1,3.7c-2,1.3-4.1,2.5-6.3,3.4c-4.3,2.1-8.5,4.2-12.8,6.4c-4.2,2.2-8.9,3.6-13.3,5.5c-4.5,1.8-8.9,3.7-13.5,4.9
			c-32.4,10.5-67.1,14-100.9,10.7c-33.8-3.4-66.7-14-95.7-31c-5-2.9-11.5-3.2-16.9,0l-0.4,0.2c-14.3,8.3-30.9,12.7-48,13.8
			c9-10.5,15.8-22.6,20.5-35.2c2.4-6.4,1.2-13.9-3.7-19.2l-0.1-0.1c-21.1-23-36.3-51.1-42.7-81.2c-1.5-7.5-2.8-15.1-3.3-22.8
			c-0.2-1.9-0.2-3.8-0.3-5.8l0.2-2.9l-0.1-1.4v-0.6l0.6-12.9l0.3-6.4l0.9-5.4l1.7-10.8c0.8-3.7,2-7.4,3-11.2c1-3.7,1.9-7.5,3.5-11.1
			c8.1-20.5,20.4-39.3,35.8-55.4c12.3-12.5,25.6-24.4,41-33.4l5.6-3.6c1.9-1.1,3.9-2.1,5.9-3.1l11.8-6.2l12.3-5.1l6.2-2.6
			c2.1-0.7,4.2-1.3,6.4-2l12.7-4c4.3-1.1,8.7-1.9,13-2.9c8.6-2.3,17.6-2.9,26.4-4.2c4.4-0.7,8.9-0.5,13.4-0.8l6.7-0.3l3.3-0.2h0.8
			h0.2l1.6,0.1l14.5,0.6c2.4,0.1,4.9,0.2,7.2,0.3l6.4,0.9c69.5,7.3,138.2,49,169.2,112.3c9.4,17.7,13.6,35.6,18.3,48.2
			c3.2,12.8,7.1,20.9,11.5,19.3c2-0.7,3.8-3.2,5.3-7.4c0.8-2.1,1.4-4.6,2.1-7.5c0.6-2.9,1.3-6.2,1.2-9.9c0.1-3.6,0-7.6-0.2-12
			c-0.1-2.2-0.2-4.4-0.5-6.7c-0.4-2.3-0.9-4.6-1.3-7.1c-1.1-4.8-1.9-10.1-3.6-15.3c-1.9-5.2-3.9-10.6-6.1-16.2
			c-9.1-19.6-20.7-38.1-35.1-54.3c-3.5-4.2-7.5-7.8-11.3-11.7l-5.8-5.7l-6.2-5.2c-4.2-3.4-8.3-7-12.6-10.2l-13.4-9.1
			c-18.4-11.4-37.9-21.2-58.7-27.4c-10.2-3.8-20.9-5.6-31.4-8.1c-5.4-1-11-1.6-16.5-2.4l-8.3-1.1c-2.8-0.4-5.1-0.3-7.7-0.5
			l-12.2-0.5l-3.1-0.1l-1.5-0.1h-1.5H243l-6.5,0.3c-8.6,0.5-17.3,0.5-25.9,2c-8.6,1.2-17.2,2.2-25.6,4.4l-12.7,3
			c-4.2,1.1-8.3,2.6-12.4,3.9c-32.9,10.8-63.9,28.1-89.8,51.4c-25.7,23.5-46.4,52.9-58.5,85.8l-1.2,3l-0.9,3.2l-1.8,6.3
			c-1.1,4.3-2.5,8.4-3.4,12.7l-2.2,13.5l-1,6.7c-0.3,2.2-0.2,4.1-0.4,6.2l-0.6,12.2l-0.1,3.1v1v0.2L0.1,245.046z M33.9,411.946h-0.1
			c0,0-0.4-0.1-0.2,0C33.7,411.946,33.8,411.946,33.9,411.946L33.9,411.946z M38.6,433.646l-0.2,0.1h-0.1l0.4-0.3l0,0
			C38.6,433.646,38.6,433.646,38.6,433.646z"/>
		<path d="M336.9,246.546c-8.7-10.3-19.3-14.8-30.1-16c-25.9-2.9-51.9-7.3-78-4c-3.2-0.4-6.5-0.8-9.7-1.1c-20.5-1.7-41-2.2-61.3,1.9
			c-5.8,1.2-10.6,5.8-10.2,14.8c0.4,8.3,4.5,14.4,10.5,15.3c10.7,1.7,21.5,3.6,32.2,3.4c17.2-0.4,34.5-2.4,51.7-3.7
			c30.9,11.5,62.5,4.9,93.8,7.3c1.4,0.1,3.6-3.4,4.3-5.8C341.3,253.846,339.5,249.646,336.9,246.546z"/>
		<path d="M336.9,184.846c-8.7-10.3-19.3-14.8-30.1-16c-25.9-2.9-51.9-7.3-78-4c-3.2-0.4-6.5-0.8-9.7-1.1c-20.5-1.7-41-2.2-61.3,1.9
			c-5.8,1.2-10.6,5.8-10.2,14.8c0.4,8.3,4.5,14.4,10.5,15.3c10.7,1.7,21.5,3.6,32.2,3.4c17.2-0.4,34.5-2.4,51.7-3.7
			c30.9,11.5,62.5,4.9,93.8,7.3c1.4,0.1,3.6-3.4,4.3-5.8C341.3,192.046,339.5,187.946,336.9,184.846z"/>
		<path d="M306.8,292.246c-25.9-2.9-51.9-7.3-78-4c-3.2-0.4-6.5-0.8-9.7-1.1c-20.5-1.7-41-2.2-61.3,1.9c-5.8,1.2-10.6,5.8-10.2,14.8
			c0.4,8.3,4.5,14.4,10.5,15.3c10.7,1.7,21.5,3.6,32.2,3.4c17.2-0.4,34.5-2.4,51.7-3.7c30.9,11.5,62.5,4.9,93.8,7.3
			c1.4,0.1,3.6-3.4,4.3-5.8c1.4-4.9-0.4-9-3.1-12.1C328.1,297.946,317.5,293.446,306.8,292.246z"/>
	</g>
</g>
<g>
</g>
<g>
</g>
<g>
</g>
<g>
</g>
<g>
</g>
<g>
</g>
<g>
</g>
<g>
</g>
<g>
</g>
<g>
</g>
<g>
</g>
<g>
</g>
<g>
</g>
<g>
</g>
<g>
</g>
</svg>
