<?xml version="1.0" encoding="iso-8859-1"?>
<!-- Generator: Adobe Illustrator 19.0.0, SVG Export Plug-In . SVG Version: 6.00 Build 0)  -->
<svg version="1.1" id="Capa_1" xmlns="http://www.w3.org/2000/svg" xmlns:xlink="http://www.w3.org/1999/xlink" x="0px" y="0px"
	 viewBox="0 0 96.5 96.5" style="enable-background:new 0 0 96.5 96.5;" xml:space="preserve">
<g>
	<g>
		<path d="M43.5,41c0.4-0.7,0.6-1.3,0.8-2.2c0-0.2,0.1-0.4,0.1-0.6v-0.4v-0.9l0.1-1.5l0.1-3c0.1-2,0.2-4,0.2-5.9
			c0.1-4,0.2-7.9,0.2-11.9v-2.4V11v-0.6c0-0.3,0-0.6-0.1-0.9C44.6,7,43.1,4.7,41,3.3c-0.5-0.3-1.1-0.6-1.7-0.8
			c-0.3-0.1-0.6-0.2-0.9-0.3c-0.1,0-0.2,0-0.4,0l-0.5-0.1h-0.3h-0.1H37h-0.3h-0.2h-0.3h-0.3h-1.2l-4.8,0.1l-19,0.4L9.8,2.5
			c-0.2,0-0.3,0-0.6,0s-0.5,0-0.8,0c-1,0-2.1,0.3-3.1,0.8C3.3,4.3,1.7,6,1,8.2C0.9,8.5,0.8,8.7,0.8,9.1L0.7,9.6L0.6,10v0.3v0.1v0.1
			v0.2v0.5l-0.1,2.1l-0.2,4.3C0.1,23.4,0,29.2,0,35v2.2v0.3v0.4c0,0.3,0,0.6,0.1,0.9c0.1,0.6,0.2,1.2,0.4,1.8
			C1.2,42.9,3,44.9,5.2,46c0.5,0.3,1.1,0.5,1.7,0.7c0.3,0.1,0.6,0.2,1,0.2C8.3,47,8.7,47,8.8,47h0.3h0.3h0.1H10h1.2h4.3
			c5.8,0,11.6,0,17.3,0.1c1,0,2.6-0.7,3.1-1.1c1-1-0.3-1.8-2.2-2.4c-6.4-2-14.3-2.9-22.2-3.1l-1.8-0.1H9.5H9.4l0,0
			c0.1,0-0.2,0,0.1,0l0,0H9.4H9l-0.3-0.2c-0.5-0.2-1-0.5-1.3-1S7,38.2,7,37.6L7.1,34c0.1-4.8,0.3-9.6,0.4-14.4l0.1-7.3v-1.8
			c0-0.5,0-0.3,0.1-0.6C7.8,9.5,8.1,9.2,8.4,9c0.2-0.1,0.3-0.2,0.5-0.2c0.1,0,0.2,0,0.3-0.1c0.1,0,0.1,0,0.2,0c0.1,0,0.3,0,0.4,0
			h3.6c2.4,0,4.8-0.1,7.2-0.2c2.4,0.1,4.8,0.1,7.1,0.2l5.7,0.1h2.8l0,0h0.2c0.1,0,0.3,0,0.3,0s-0.1,0,0,0S37,8.9,37.1,9
			c0.5,0.3,0.8,0.8,0.8,1.3v5.5c0,3.8,0.1,7.6,0.2,11.3l0.2,5.6l0.2,5c0,0.8-0.5,1.7-1,2.4s-1.2,1.3-1.1,2.2
			c0.1,0.8,1.1,1.6,2.9,1.4c0.9-0.1,2-0.5,2.9-1.4C42.7,42.2,43.2,41.7,43.5,41z"/>
		<path d="M11.7,75.4c-1.1-0.7-2.5-0.9-3.7,0.4c-1.1,1.2-1.3,2.7-0.5,3.8c1.4,1.9,2.9,3.9,4.6,5.5c2.8,2.7,5.7,5.1,8.6,7.6l0,0l0,0
			c0.9,1,2.3,1.3,3.5,0.7l0.5-0.3c6.2-3.3,10.2-9,15.3-13.5c0.2-0.2,0.1-1-0.1-1.5c-0.4-0.9-1.3-1.2-2.1-1.2c-2.8-0.1-5.1,1-6.9,2.5
			c-1.6,1.3-3.3,2.6-4.9,4c0.1-0.9,0.2-1.9,0.2-2.8c-0.1-3.2-0.5-6.4-0.7-9.6c2.2-5.7,1-11.6,1.4-17.3c0-0.3-0.7-0.7-1.1-0.8
			c-1-0.3-1.8,0.1-2.4,0.6c-2.1,1.7-2.9,3.7-3.2,5.7c-0.6,4.8-1.4,9.6-0.8,14.4c-0.1,0.6-0.2,1.2-0.2,1.8c-0.2,2.2-0.3,4.3-0.2,6.5
			C16.8,79.5,14.4,77.3,11.7,75.4z"/>
		<path d="M52.9,55.4c-0.4,0.7-0.6,1.3-0.8,2.2c0,0.2-0.1,0.4-0.1,0.6v0.4v0.9L51.9,61l-0.1,3c-0.1,2-0.2,4-0.2,5.9
			c-0.1,4-0.2,7.9-0.2,11.9v2.4v1.2V86c0,0.3,0,0.6,0.1,0.9c0.3,2.5,1.8,4.8,3.9,6.2c0.5,0.3,1.1,0.6,1.7,0.8
			c0.3,0.1,0.6,0.2,0.9,0.3c0.2,0,0.3,0.1,0.5,0.1l0.5,0.1h0.3h0.1h0.1h0.3H60h0.2h0.3h1.2l4.8-0.1l19.1-0.4l1.1,0.1
			c0.2,0,0.3,0,0.6,0c0.3,0,0.5,0,0.8,0c1.1-0.1,2.1-0.3,3.1-0.8c2-1,3.6-2.7,4.3-4.9c0.1-0.3,0.2-0.5,0.2-0.9l0.1-0.5l0.1-0.4v-0.3
			v-0.1V86v-0.2v-0.5l0.1-2.1l0.2-4.3c0.2-5.8,0.3-11.5,0.3-17.3v-2.2v-0.3v-0.4c0-0.3,0-0.6-0.1-0.9c-0.1-0.6-0.2-1.2-0.4-1.8
			c-0.8-2.4-2.5-4.4-4.7-5.4c-0.5-0.3-1.1-0.5-1.7-0.7c-0.3-0.1-0.6-0.2-1-0.2c-0.4-0.1-0.8-0.1-0.9-0.1h-0.3h-0.3H87h-0.5h-1.1
			h-4.3c-5.8,0-11.6,0-17.3-0.1c-1,0-2.6,0.7-3.1,1.1c-1,1,0.3,1.8,2.2,2.4c6.4,2,14.3,2.9,22.2,3.1l1.8,0.1h0.2h0.1l0,0
			c-0.1,0,0.2,0-0.1,0l0,0h0.1h0.4l0.3,0.1c0.5,0.2,1,0.5,1.3,1s0.4,1,0.4,1.6l-0.1,3.6c-0.1,4.8-0.3,9.6-0.4,14.4L89,84.1v1.8
			c0,0.5,0,0.3-0.1,0.6c-0.1,0.4-0.4,0.7-0.7,0.9c-0.2,0.1-0.3,0.2-0.5,0.2c-0.1,0-0.2,0-0.3,0.1c-0.1,0-0.1,0-0.2,0s-0.3,0-0.4,0
			h-3.6c-2.4,0-4.8,0.1-7.2,0.2c-2.4-0.1-4.8-0.1-7.1-0.2l-5.7-0.1h-2.8l0,0h-0.2c-0.1,0-0.3,0-0.3,0s0.1,0,0,0s-0.3-0.1-0.4-0.2
			c-0.5-0.3-0.8-0.8-0.8-1.3v-5.5c0-3.8-0.1-7.6-0.2-11.3l-0.3-6l-0.2-5c0-0.8,0.5-1.7,1-2.4s1.2-1.3,1.1-2.2
			c-0.1-0.8-1.1-1.6-2.9-1.4c-0.9,0.1-2,0.5-2.9,1.4C53.7,54.2,53.2,54.7,52.9,55.4z"/>
		<path d="M84.7,21c1.1,0.7,2.5,0.9,3.7-0.4c1.1-1.2,1.3-2.7,0.5-3.7C87.5,15,86,13,84.3,11.4c-2.8-2.7-5.7-5.1-8.6-7.6l0,0l0,0
			c-1-1-2.5-1.2-3.7-0.6l-0.4,0c-6.2,3.3-10.2,9-15.3,13.5c-0.2,0.2-0.1,1,0.1,1.5c0.4,0.9,1.3,1.2,2.1,1.2c2.8,0.1,5.1-1,6.9-2.5
			c1.6-1.3,3.3-2.6,4.9-4c-0.1,0.9-0.2,1.9-0.2,2.8c0.1,3.2,0.5,6.4,0.7,9.6c-2.2,5.7-1,11.6-1.4,17.3c0,0.3,0.7,0.7,1.1,0.8
			c1,0.3,1.8-0.1,2.4-0.6c2-1.6,2.9-3.6,3.1-5.6c0.6-4.8,1.4-9.6,0.8-14.4c0.1-0.6,0.2-1.2,0.2-1.8c0.2-2.2,0.3-4.3,0.2-6.5
			C79.6,16.9,82,19.1,84.7,21z"/>
	</g>
</g>
<g>
</g>
<g>
</g>
<g>
</g>
<g>
</g>
<g>
</g>
<g>
</g>
<g>
</g>
<g>
</g>
<g>
</g>
<g>
</g>
<g>
</g>
<g>
</g>
<g>
</g>
<g>
</g>
<g>
</g>
</svg>
