<?xml version="1.0" encoding="iso-8859-1"?>
<!-- Generator: Adobe Illustrator 19.0.0, SVG Export Plug-In . SVG Version: 6.00 Build 0)  -->
<svg version="1.1" id="Capa_1" xmlns="http://www.w3.org/2000/svg" xmlns:xlink="http://www.w3.org/1999/xlink" x="0px" y="0px"
	 viewBox="0 0 487.094 487.094" style="enable-background:new 0 0 487.094 487.094;" xml:space="preserve">
<g>
	<g>
		<path d="M396.222,407.101c12.1,0.3,24.1,0.6,36.3,0.8l0,0c7.6,0.2,13.8-5.8,14-13.4v-0.7c1.4-62.4,2.7-125.1,2.6-187.6
			c-0.2-62.4-0.8-124.7-1.6-187v-0.4l0,0c-0.1-8.2-6.8-14.8-15-14.6c-57.7,0.7-115.3,1.4-173,2.1c-66.8-3.6-134-5.4-201.6-6.3
			c-10.4-0.1-19,8.2-19.2,18.7v0.5c-1.6,124.4-0.1,249.8-0.5,374.6c-0.1,10.8,8.6,19.6,19.5,19.7h0.2c25.5,0.2,51,0.3,76.3,0.5
			c9.7,0.1,24.9-3.4,29.7-5.8c9.5-4.9-2.9-9-21.3-12.1c-23.5-4-49.1-7.1-76.2-9.5c2.9-37.4,4.6-77.2,5.2-117.5
			c1.3-77.2,2.6-154.5,3.9-231.8c91.6,1.1,183.4,1.4,275.5-0.2c20.8,0.3,41.5,0.7,62.3,1c-1.2,112.9-1.4,225.8,0.9,338.3
			c-6.6,0.2-13.3,0.3-19.9,0.5c-40.3,1.2-73.9,5.8-70.9,14.8C326.122,400.001,354.722,406.101,396.222,407.101z"/>
		<path d="M319.222,261.801c4.9-1.7,6.5-6.3,6.6-11c0.1-15.8-5.8-29.8-14.4-41.8c-16.7-23.3-32.7-47.3-51.7-68.9l-0.5-0.6
			c-0.6-0.7-1.4-1.4-2.1-2c-8-6.5-19.7-5.4-26.3,2.6c-4.4,5.4-8.6,10.9-12.6,16.6c-3.1,3.1-6.3,6.2-9.4,9.4
			c-19.4,20.3-38,41.4-52.9,65.3c-4.2,6.8-5,14.8,2.3,20.2c6.7,4.9,14.9,4.6,21-1c10.8-10,21.8-20.1,31.1-31.4
			c7-8.5,13.7-17.3,20.3-26.1c-1.2,12.9-2.1,25.8-1.9,38.7c0.4,29.3,2.4,58.6,3.7,87.9c-11.5,52.5-4.9,106.2-7.3,159.4
			c-0.1,2.4,3.4,6.1,5.8,7.2c4.9,2.3,9-0.7,12.1-5.2c10.3-14.8,14.8-32.9,16-51.2c2.9-44.1,7.3-88.2,4-132.6
			c0.4-5.5,0.8-11,1.1-16.5c1.2-25.1,1.8-50.1,0.5-75.1c15.2,18.6,31.9,36.1,46.4,55.3
			C312.222,262.601,316.822,262.601,319.222,261.801z"/>
	</g>
</g>
<g>
</g>
<g>
</g>
<g>
</g>
<g>
</g>
<g>
</g>
<g>
</g>
<g>
</g>
<g>
</g>
<g>
</g>
<g>
</g>
<g>
</g>
<g>
</g>
<g>
</g>
<g>
</g>
<g>
</g>
</svg>
