<?xml version="1.0" encoding="iso-8859-1"?>
<!-- Generator: Adobe Illustrator 19.0.0, SVG Export Plug-In . SVG Version: 6.00 Build 0)  -->
<svg version="1.1" id="Capa_1" xmlns="http://www.w3.org/2000/svg" xmlns:xlink="http://www.w3.org/1999/xlink" x="0px" y="0px"
	 viewBox="0 0 485.603 485.603" style="enable-background:new 0 0 485.603 485.603;" xml:space="preserve">
<g>
	<g>
		<path d="M430.709,224.261v-1.9l-0.1-2.6c-0.1-1.8-0.1-3.6-0.4-5.4c-0.5-3.6-1.1-7.2-2.1-10.7c-2-7-5-13.7-9-19.7
			c-8.2-12-20-21.5-33.7-26.4c-1.7-0.7-3.4-1.2-5.2-1.7c-1.9-0.4-3.3-1-5.5-1.3c-2.1-0.3-4.1-0.6-6.2-0.9l-3.9-0.2l-1-0.1h-2h-1.9
			h-3.9l-7.7-0.1c-7.4-0.1-18.9,3.4-22.5,5.8c-7.2,4.9,2.2,9,16.1,12.1c5.8,1.3,11.7,2.5,17.7,3.6c1.6,0.3,2.9,0.5,4.5,0.9
			c1.5,0.4,3.1,0.6,4.4,1.1c2.7,0.9,5.4,2,8,3.3c10.3,5.4,18.1,14.6,21.7,25c1.8,5.2,2.5,10.6,2.1,16c-0.4,6.8-0.8,13.6-1.3,20.5
			c-0.8,14-1.3,28.2-1.6,42.4c-0.8,34.3-1.5,68.5-2.3,102.8l-0.6,25.7l-0.1,3.2v1.6l0,0l-0.1,0.8c-0.1,2.1-0.3,4.7-0.6,5.2
			c-0.1,0.9-0.5,2.2-0.9,3.6c-0.4,1.3-1,2.6-1.5,3.9c-4.7,10.1-15.1,17-25.7,17.7h-2h-1h-1.6l-6.4-0.1l-12.9-0.2l-25.8-0.3
			c-17.2-0.1-34.4-0.2-51.6-0.2c-34.4,0-68.8,0.3-103.3,1.2l-25.6-0.6c-8-0.3-18.9-0.1-21.6-1.2c-8-1.9-15.1-7.3-19-14.4
			c-2-3.5-3.2-7.4-3.6-11.4l-0.1-3v-4.9l0.1-10.1c0.2-27.1,0.3-54.1,0.2-81.1c-0.1-27-0.4-54-0.9-81l-0.4-19.3l0.1-2.5v-1.2l0.1-0.5
			c0.2-0.8,0-1.2,0.4-2.4c0.4-2,1-4.1,1.8-6c3.2-7.7,9.9-14.3,18.1-17.4c4.8-1.8,8.7-2.3,16.4-2.9c6.7-0.7,12.6-1.7,17.6-2.9
			c9.9-2.4,15.7-5.8,14.6-10.4c-1-4.1-7-7.7-16.6-10.4c-4.8-1.3-10.5-2.5-17-3.3c-1.6-0.2-3.3-0.4-5-0.6c-1.9-0.1-4.3-0.2-6.5-0.2
			c-4.5,0.2-9.3,0.9-14.1,2.5c-17.1,5.4-31.9,18.6-38.9,35.7c-0.8,2.1-1.7,4.3-2.3,6.5l-0.9,3.3c-0.3,1.2-0.5,2.5-0.7,3.8
			c-0.2,1.2-0.4,2.7-0.5,3.7l-0.2,2.7l-0.1,1.3l-0.1,0.7v1.4l-0.1,2.7l-0.5,21.3c-0.7,28.4-1.1,56.8-1,85.1l0.5,68.3l0.2,17.1
			c0,0.6,0,1.5,0.1,2.5l0.2,2.8c0.1,1.9,0.4,3.7,0.7,5.6c0.5,3.7,1.6,7.4,2.8,10.9c5,14.3,15.2,26.4,28.1,33.9
			c6.5,3.8,13.4,6.3,21,7.7c2,0.3,4.2,0.6,6.1,0.8l4.3,0.1h1.8h1.1h2.1l4.3-0.1l34.2-0.6l68.3-1.1c40.8,2.9,81.9,4.6,123.1,5.6
			l7.7,0.2c1.1,0.1,3.1,0,4.8-0.1c1.8-0.1,3.6-0.1,5.3-0.4c7.1-0.7,14.1-2.8,20.6-5.8c13.1-6,24-16.5,31-29.2
			c1.7-3.2,3.2-6.5,4.4-10c0.7-1.7,1.1-3.5,1.6-5.2s0.9-3.5,1.2-5.7l0.4-3.1c0.1-1,0.3-2.2,0.3-2.7l0.2-3.9l0.1-8.8l0.1-31
			c-0.1-41.4-0.2-82.9-0.3-124.3L430.709,224.261z"/>
		<path d="M227.409,4.661L227.409,4.661l-0.2,0.1l-0.4,0.2c-2,1.2-4,2.5-6,3.8c-3.9,2.6-7.7,5.4-11.3,8.3
			c-7.3,5.8-14.1,12.2-20.8,18.8c-13.3,13.1-25.8,27.1-39.8,39.4c-1.2,1.1-0.6,5.4,0.5,7.7c2.3,4.6,6.7,6,11.2,6
			c14.6-0.1,26.8-5.8,36.7-14c9.7-8,19.5-16,29.2-24.1c-1.1,9.4-2.1,18.7-1.9,28.1c0.4,21.4,2.4,42.7,3.7,64.1
			c-11.5,38.3-4.9,77.4-7.3,116.1c-0.1,1.7,3.4,4.4,5.8,5.3c4.9,1.7,9-0.5,12.1-3.8c10.3-10.8,14.8-23.9,16-37.3
			c2.9-32.1,7.3-64.3,4-96.6c0.4-4,0.8-8,1.1-12c1.2-18.6,1.8-37.2,0.4-55.8c12.8,13.9,26.5,26.9,42,38c5.7,4.1,13,4.9,19.1-1.9
			c5.5-6.2,6.4-14,2-19.7c-7.8-10.2-15.5-20.6-24.7-29.5c-7.4-7.1-15.1-14-22.8-20.7l-11.7-10.1l-5.8-5l-2.9-2.5l-1.5-1.3
			c0.1,0.1-2.3-2.3-4.3-3.2c-3.6-2.4-8.1-3.5-12.6-2.9c-2.2,0.3-4.5,1-6.5,2.2c-0.6,0.3-1.3,0.8-1.9,1.3l-0.4,0.3l-0.1,0.1l-0.2,0.1
			l-0.1,0.1l0,0C228.409,3.661,227.309,4.761,227.409,4.661z M231.309,28.361l0.3,0.2l0.3,0.3c-0.1-0.1-0.2-0.1-0.3-0.2
			L231.309,28.361C231.109,28.261,231.309,28.361,231.309,28.361z"/>
	</g>
</g>
<g>
</g>
<g>
</g>
<g>
</g>
<g>
</g>
<g>
</g>
<g>
</g>
<g>
</g>
<g>
</g>
<g>
</g>
<g>
</g>
<g>
</g>
<g>
</g>
<g>
</g>
<g>
</g>
<g>
</g>
</svg>
