<?xml version="1.0" encoding="iso-8859-1"?>
<!-- Generator: Adobe Illustrator 19.0.0, SVG Export Plug-In . SVG Version: 6.00 Build 0)  -->
<svg version="1.1" id="Capa_1" xmlns="http://www.w3.org/2000/svg" xmlns:xlink="http://www.w3.org/1999/xlink" x="0px" y="0px"
	 viewBox="0 0 489.663 489.663" style="enable-background:new 0 0 489.663 489.663;" xml:space="preserve">
<g>
	<g>
		<path d="M457.423,433.6c-15.6-15.1-32.5-29.1-48.8-43.5c-17.5-32.1-45.8-54.4-70.4-80c5.9-7.2,11.3-14.9,16.1-22.9
			c1.5-2.6,3.3-5.2,4.7-7.9l4-8.3c1.3-2.8,2.8-5.5,3.9-8.3l3.2-8.6c1-2.9,2.2-5.7,3.1-8.7l2.4-8.9l2.3-8.9l1.6-9.6
			c2-9.9-1.4-21.6-3.6-25.7c-4.6-7.9-8.9,1.8-13.2,16.6c-8,24.3-20.1,48.2-37,69.6c-8.7,10.4-18.1,20.6-29,29.1
			c-5.2,4.6-11.1,8.3-16.8,12.3c-2.8,2-6,3.5-9,5.3c-3,1.7-6,3.6-9.2,4.9c-14.9,7.7-31.3,12.1-47.7,14.4c-4.1,0.4-8.2,1.3-12.4,1.2
			l-6.2,0.2l-3.1,0.1h-1.6h-0.8h-0.4l0,0l-13.2-1l-3.4-0.2c-1.1-0.1-2-0.3-3-0.5l-5.8-1.1l-5.8-1c-1.9-0.4-4-1.1-5.9-1.6
			c-3.9-1.2-8-2-11.8-3.6l-11.5-4.5l-11-5.6c-14.4-7.9-27.5-18-38.9-29.7c-11.3-11.8-20.5-25.5-27.7-40.1l-2.6-5.5l-1.3-2.8l-1-2.9
			l-4.1-11.5l-3-11.8c-0.6-2-0.9-4-1.2-6l-0.9-6l-0.9-6l-0.3-6.1l-0.3-6.1l-0.2-3.1v-0.2v-0.5l0.1-1.7l0.6-13.7
			c0.4-4.1,1.1-7.7,1.6-11.5c2.7-15.6,7.8-31.7,15.1-46.3c8.2-14.1,18.6-26.7,30.4-37.7c37.6-35.2,92.7-49.1,142-36.7l9.2,2.3
			l8.9,3.2l4.5,1.6c1.5,0.6,2.9,1.3,4.3,2l8.6,4c11.1,6.2,22,13,31.4,21.6c9.8,8.2,18.1,18.1,25.6,28.4c3.4,5.4,7.3,10.6,10,16.4
			c1.5,2.9,3.1,5.7,4.4,8.6l3.7,8.9c11.3,27.1,13.8,52.8,23.5,50.6c4.1-1.1,7.4-7.5,9.5-18.5c0.5-5.4,0.8-12,0.3-19.4
			c-0.5-3.7-1.1-7.5-1.9-11.6c-0.4-2-0.7-4.1-1.3-6.2c-0.7-2.1-1.3-4.2-2-6.3c-4.6-15.5-12.3-30-20.9-43.9
			c-4.7-6.6-9.2-13.5-14.8-19.5c-2.8-3-5.2-6.4-8.3-9.1l-8.9-8.5c-12.4-10.7-26-20.4-41-27.4c-7.3-4-15.2-6.5-22.9-9.4
			c-3.9-1.4-8-2.2-11.9-3.3c-4-1-7.9-2.2-12.3-2.7l-10.4-1.4l-5.1-0.7l-4.5-0.2l-9.1-0.4l-2.3-0.1h-1.1h-0.6h-0.9h-0.1h-0.2h-0.3
			l-5,0.3c-6.6,0.5-13.3,0.4-19.8,1.8c-6.5,1.1-13.1,1.9-19.5,3.9c-25.7,6.5-49.8,18.6-70.4,35.1c-20.5,16.5-37.7,37.1-49.6,60.5
			c-2.7,6-5.8,11.8-8,17.9l-3.2,9.3l-1.6,4.6c-0.5,1.6-0.8,3.2-1.2,4.7c-1.4,6.4-3.4,12.5-4.1,19.3c-0.9,6.6-2.1,13.6-2,19.4
			c-3,22.7-1.4,47.1,5,70.1c6.4,23.1,17.6,45,32.7,64s34,35.1,55.4,47l16.5,8.1c5.7,2.2,11.5,4.3,17.2,6.5
			c5.9,1.7,11.9,3.2,17.8,4.7c6.2,1.3,12.7,2.1,19.1,3l2.4,0.3l2.1,0.1l4.1,0.2l8.3,0.4l2.1,0.1l1,0.1h1.3h0.3h0.6l4.6-0.2l9.2-0.5
			l4.6-0.3c1.5-0.2,3-0.4,4.6-0.7l9.1-1.4c6.1-0.7,12-2.6,18-4.1c23.7-6.6,46.1-17.8,65.5-32.7c4.8-3.7,9.4-7.6,13.9-11.7
			c2.8,7.8,7.1,14.9,12.3,21.1c21.1,25.2,41.1,51.5,66.8,72.5c2.6,3.1,5.2,6.3,7.9,9.4c17.1,19.5,35,38.1,56.1,53.4
			c6,4.3,13.5,5.4,19.6-1.4c5.5-6.2,6.1-14.2,1.5-20.2C475.423,453.9,467.123,443,457.423,433.6z"/>
		<path d="M238.223,175.1c-20.2-2.9-40.5-7.3-60.9-4c-2.5-0.4-5-0.8-7.6-1.1c-16-1.7-32-2.2-47.9,1.9c-4.5,1.2-8.3,5.8-7.9,14.8
			c0.3,8.3,3.5,14.4,8.2,15.3c8.3,1.7,16.7,3.6,25.1,3.4c13.5-0.4,26.9-2.4,40.4-3.7c24.1,11.5,48.8,4.9,73.2,7.3
			c1.1,0.1,2.8-3.4,3.3-5.8c1.1-4.9-0.3-9-2.4-12.1C254.923,180.8,246.623,176.3,238.223,175.1z"/>
	</g>
</g>
<g>
</g>
<g>
</g>
<g>
</g>
<g>
</g>
<g>
</g>
<g>
</g>
<g>
</g>
<g>
</g>
<g>
</g>
<g>
</g>
<g>
</g>
<g>
</g>
<g>
</g>
<g>
</g>
<g>
</g>
</svg>
